<svg stroke="currentColor" width="165" height="137" viewBox="0 0 165 137" fill="none" xmlns="http://www.w3.org/2000/svg">
<g clip-path="url(#clip0_307_670)">
<path d="M108.546 0H60.5999C53.1428 0 47.0977 6.04066 47.0977 13.4922V122.973C47.0977 130.424 53.1428 136.465 60.5999 136.465H108.546C116.003 136.465 122.049 130.424 122.049 122.973V13.4922C122.049 6.04066 116.003 0 108.546 0Z" fill="#3F3D56"/>
<path d="M120.785 13.493V122.973C120.781 126.215 119.491 129.323 117.197 131.616C114.902 133.908 111.792 135.198 108.547 135.202H60.6014C57.3568 135.198 54.2462 133.908 51.9519 131.616C49.6576 129.323 48.367 126.215 48.3633 122.973V13.493C48.367 10.2509 49.6576 7.14255 51.9519 4.84998C54.2462 2.55741 57.3568 1.26779 60.6014 1.26404H66.8711V3.42818C66.8711 4.40793 67.2607 5.34753 67.954 6.04031C68.6473 6.7331 69.5876 7.12232 70.5681 7.12238H98.5804C99.5608 7.12232 100.501 6.7331 101.194 6.04031C101.888 5.34753 102.277 4.40793 102.277 3.42818V1.26404H108.547C111.792 1.26779 114.902 2.55741 117.197 4.84998C119.491 7.14255 120.781 10.2509 120.785 13.493Z" fill="white"/>
<path d="M46.7536 27.6835C46.5098 27.6832 46.2761 27.5863 46.1036 27.414C45.9312 27.2418 45.8343 27.0082 45.834 26.7646V24.9266C45.834 24.6829 45.9309 24.4492 46.1033 24.2768C46.2758 24.1045 46.5097 24.0077 46.7536 24.0077C46.9975 24.0077 47.2314 24.1045 47.4039 24.2768C47.5764 24.4492 47.6733 24.6829 47.6733 24.9266V26.7646C47.673 27.0082 47.576 27.2418 47.4036 27.414C47.2312 27.5863 46.9974 27.6832 46.7536 27.6835Z" fill="#3F3D56"/>
<path d="M46.7536 37.1078C46.5098 37.1075 46.2761 37.0106 46.1036 36.8383C45.9312 36.6661 45.8343 36.4325 45.834 36.1888V31.1296C45.834 30.8859 45.9309 30.6522 46.1033 30.4798C46.2758 30.3075 46.5097 30.2107 46.7536 30.2107C46.9975 30.2107 47.2314 30.3075 47.4039 30.4798C47.5764 30.6522 47.6733 30.8859 47.6733 31.1296V36.1888C47.673 36.4325 47.576 36.6661 47.4036 36.8383C47.2312 37.0106 46.9974 37.1075 46.7536 37.1078Z" fill="#3F3D56"/>
<path d="M46.7536 44.6842C46.5098 44.6839 46.2761 44.587 46.1036 44.4147C45.9312 44.2425 45.8343 44.0089 45.834 43.7653V38.7061C45.834 38.4623 45.9309 38.2286 46.1033 38.0563C46.2758 37.8839 46.5097 37.7871 46.7536 37.7871C46.9975 37.7871 47.2314 37.8839 47.4039 38.0563C47.5764 38.2286 47.6733 38.4623 47.6733 38.7061V43.7653C47.673 44.0089 47.576 44.2425 47.4036 44.4147C47.2312 44.587 46.9974 44.6839 46.7536 44.6842Z" fill="#3F3D56"/>
<path d="M122.164 40.5489C121.92 40.5486 121.686 40.4517 121.514 40.2794C121.341 40.1072 121.244 39.8736 121.244 39.6299V27.2853C121.244 27.0416 121.341 26.8078 121.513 26.6355C121.686 26.4632 121.92 26.3663 122.164 26.3663C122.408 26.3663 122.642 26.4632 122.814 26.6355C122.987 26.8078 123.083 27.0416 123.083 27.2853V39.6299C123.083 39.8736 122.986 40.1072 122.814 40.2794C122.641 40.4517 122.408 40.5486 122.164 40.5489Z" fill="#3F3D56"/>
<path d="M86.5497 4.21473H79.4224C79.27 4.21473 79.1238 4.15422 79.016 4.04651C78.9082 3.9388 78.8477 3.79271 78.8477 3.64039C78.8477 3.48806 78.9082 3.34197 79.016 3.23426C79.1238 3.12655 79.27 3.06604 79.4224 3.06604H86.5497C86.7021 3.06604 86.8483 3.12655 86.9561 3.23426C87.0639 3.34197 87.1244 3.48806 87.1244 3.64039C87.1244 3.79271 87.0639 3.9388 86.9561 4.04651C86.8483 4.15422 86.7021 4.21473 86.5497 4.21473Z" fill="white"/>
<path d="M90.2274 4.09986C90.4814 4.09986 90.6872 3.89415 90.6872 3.64039C90.6872 3.38662 90.4814 3.18091 90.2274 3.18091C89.9734 3.18091 89.7676 3.38662 89.7676 3.64039C89.7676 3.89415 89.9734 4.09986 90.2274 4.09986Z" fill="white"/>
<path d="M145.476 130.725C145.644 130.731 145.809 130.686 145.95 130.595C146.092 130.504 146.201 130.371 146.265 130.216C146.328 130.06 146.342 129.889 146.305 129.725C146.267 129.562 146.181 129.413 146.056 129.301C146.035 129.219 146.019 129.16 145.998 129.078C146.155 128.669 146.43 128.316 146.789 128.064C147.148 127.812 147.574 127.673 148.012 127.665C148.45 127.657 148.881 127.779 149.249 128.017C149.618 128.255 149.906 128.598 150.078 129.001C151.071 131.263 152.35 133.602 151.749 136.11C155.794 127.327 154.286 116.465 148.114 109.046C146.419 108.134 145.036 106.498 144.662 104.586C145.499 104.861 146.534 104.172 145.898 103.3C145.622 102.967 145.345 102.636 145.069 102.303C148.208 98.8989 152.036 104.166 148.589 108.753C149.745 110.172 150.748 111.708 151.584 113.336C151.378 111.601 151.587 109.842 152.194 108.203C152.811 106.676 153.982 105.383 155.011 104.058C156.263 102.443 158.877 103.158 159.067 105.19C157.901 105.585 157.765 107.274 159.105 107.492C158.791 111.279 156.35 114.78 152.959 116.471C154.251 119.987 154.778 123.737 154.505 127.473C155.065 123.105 159.74 122.002 162.999 120.237C163.206 120.102 163.448 120.029 163.696 120.029C163.943 120.028 164.186 120.1 164.393 120.235C164.601 120.37 164.765 120.562 164.865 120.789C164.965 121.015 164.997 121.266 164.957 121.51C164.507 121.698 164.076 121.93 163.672 122.203C163.482 122.333 163.338 122.518 163.258 122.733C163.178 122.949 163.166 123.183 163.225 123.405C163.284 123.627 163.41 123.826 163.586 123.973C163.762 124.121 163.979 124.21 164.208 124.229C162.597 128.328 158.355 131.11 153.971 131.136C153.567 132.97 152.974 134.756 152.2 136.466L145.694 136.528C145.67 136.456 145.648 136.382 145.627 136.31C146.229 136.342 146.834 136.3 147.426 136.186C145.815 134.316 144.574 133.366 145.476 130.725Z" fill="#F2F2F2"/>
<path d="M19.5408 130.725C19.3729 130.731 19.2072 130.686 19.0661 130.595C18.925 130.504 18.8154 130.371 18.752 130.216C18.6887 130.06 18.6747 129.889 18.712 129.725C18.7493 129.562 18.836 129.413 18.9605 129.301C18.9819 129.219 18.9973 129.16 19.0188 129.078C18.862 128.669 18.5866 128.316 18.2277 128.064C17.8689 127.812 17.4429 127.673 17.0045 127.665C16.5661 127.657 16.1352 127.779 15.7671 128.017C15.3989 128.255 15.1103 128.598 14.9382 129.001C13.9455 131.263 12.6663 133.602 13.2675 136.11C9.22246 127.327 10.7301 116.465 16.9025 109.046C18.5977 108.134 19.9803 106.498 20.3544 104.586C19.5171 104.861 18.483 104.172 19.1189 103.3C19.3941 102.967 19.6719 102.636 19.9471 102.303C16.8088 98.8989 12.9807 104.166 16.4271 108.753C15.2718 110.172 14.2683 111.708 13.4327 113.336C13.6386 111.601 13.4294 109.842 12.8221 108.203C12.2055 106.676 11.0346 105.383 10.0054 104.058C8.75397 102.443 6.13987 103.158 5.95005 105.19C7.11539 105.585 7.25118 107.274 5.91177 107.492C6.22596 111.279 8.6665 114.78 12.0577 116.471C10.7659 119.987 10.2388 123.737 10.5116 127.473C9.95177 123.105 5.27622 122.002 2.01768 120.237C1.81051 120.102 1.56834 120.029 1.3207 120.029C1.07306 120.028 0.83067 120.1 0.623089 120.235C0.415508 120.37 0.251713 120.562 0.151684 120.789C0.0516547 121.015 0.0197153 121.266 0.059763 121.51C0.510036 121.698 0.940509 121.93 1.34484 122.203C1.53429 122.333 1.67888 122.518 1.75881 122.733C1.83874 122.949 1.8501 123.183 1.79131 123.405C1.73253 123.627 1.60649 123.826 1.43047 123.973C1.25445 124.121 1.03706 124.21 0.808109 124.229C2.42004 128.328 6.66199 131.11 11.0457 131.136C11.4495 132.97 12.0429 134.756 12.8163 136.466L19.3224 136.528C19.3464 136.456 19.3681 136.382 19.3898 136.31C18.7872 136.342 18.183 136.3 17.5906 136.186C19.2018 134.316 20.4432 133.366 19.541 130.725L19.5408 130.725Z" fill="#F2F2F2"/>
<path d="M64.1306 6.67922H57.923C57.6181 6.67922 57.3257 6.5582 57.1101 6.34278C56.8946 6.12736 56.7734 5.83518 56.7734 5.53053C56.7734 5.22588 56.8946 4.9337 57.1101 4.71828C57.3257 4.50286 57.6181 4.38184 57.923 4.38184H64.1306C64.4355 4.38184 64.7279 4.50286 64.9434 4.71828C65.159 4.9337 65.2801 5.22588 65.2801 5.53053C65.2801 5.83518 65.159 6.12736 64.9434 6.34278C64.7279 6.5582 64.4355 6.67922 64.1306 6.67922Z" fill="#E6E6E6"/>
<path d="M104.826 6.56435C105.397 6.56435 105.86 6.10149 105.86 5.53053C105.86 4.95956 105.397 4.4967 104.826 4.4967C104.254 4.4967 103.791 4.95956 103.791 5.53053C103.791 6.10149 104.254 6.56435 104.826 6.56435Z" fill="#E6E6E6"/>
<path d="M108.044 6.56435C108.616 6.56435 109.079 6.10149 109.079 5.53053C109.079 4.95956 108.616 4.4967 108.044 4.4967C107.473 4.4967 107.01 4.95956 107.01 5.53053C107.01 6.10149 107.473 6.56435 108.044 6.56435Z" fill="#E6E6E6"/>
<path d="M111.263 6.56435C111.835 6.56435 112.298 6.10149 112.298 5.53053C112.298 4.95956 111.835 4.4967 111.263 4.4967C110.692 4.4967 110.229 4.95956 110.229 5.53053C110.229 6.10149 110.692 6.56435 111.263 6.56435Z" fill="#E6E6E6"/>
<path d="M104.103 22.7343H65.0872C64.3314 22.7353 63.6069 23.0358 63.0725 23.5698C62.5381 24.1038 62.2374 24.8278 62.2363 25.583V50.9255C62.2374 51.6807 62.5381 52.4047 63.0725 52.9387C63.6069 53.4728 64.3314 53.7732 65.0872 53.7743H104.103C104.859 53.7736 105.584 53.4733 106.118 52.9392C106.653 52.4051 106.953 51.6808 106.954 50.9255V25.583C106.953 24.8277 106.653 24.1035 106.118 23.5694C105.584 23.0353 104.859 22.7349 104.103 22.7343Z" fill="#F2F2F2"/>
<path d="M91.8879 33.5531C88.362 39.7824 84.4712 45.7982 80.2356 51.5691H74.1172C78.1248 46.6905 82.1353 41.8119 86.1488 36.9333C87.3002 35.5286 88.5497 34.057 90.2768 33.4862L91.8879 33.5531Z" fill="#3F3D56"/>
<path d="M83.7564 32.5543C83.1182 33.2187 82.5068 33.9099 81.9311 34.6279C80.6637 36.153 79.4141 37.6915 78.1601 39.2256C77.3791 40.1799 76.5981 41.1342 75.8261 42.0885C75.5809 41.9311 75.3481 41.7552 75.1299 41.5623C73.8967 40.4928 73.1319 38.9832 72.9992 37.3569C72.8665 35.7307 73.3765 34.1172 74.42 32.8622C75.4635 31.6073 76.9574 30.8106 78.5816 30.643C80.2058 30.4754 81.8311 30.9502 83.1093 31.9656C83.3396 32.1451 83.5559 32.3419 83.7564 32.5543Z" fill="#80DFFF"/>
<path d="M106.953 31.8297V32.7555L106.54 32.6039L100.716 30.4765C98.8192 29.785 96.927 28.9947 94.9682 28.4962C93.264 28.009 91.4542 28.0322 89.763 28.5628C88.2555 29.1201 86.8761 29.9758 85.7074 31.0785C85.1901 31.5563 84.6889 32.0457 84.2038 32.5534C84.0451 32.7211 83.8865 32.8888 83.7302 33.0565C83.2611 33.5665 82.8082 34.088 82.3783 34.6279C81.1115 36.1534 79.8608 37.6926 78.6078 39.225C77.8261 40.1807 77.0444 41.1341 76.2719 42.0875C73.6923 45.2419 71.128 48.4023 68.579 51.5689C68.2357 51.565 67.894 51.5218 67.5605 51.4402C70.1608 48.2124 72.7734 44.993 75.3982 41.782C75.458 41.7085 75.5178 41.635 75.5775 41.5614C75.8856 41.1778 76.2006 40.7918 76.5133 40.4082C77.8214 38.8069 79.1304 37.2071 80.4401 35.6089C81.392 34.4464 82.3369 33.2793 83.3623 32.1766C83.4244 32.1054 83.4887 32.0365 83.5554 31.9652C83.6543 31.8596 83.7532 31.7562 83.8543 31.6482C86.0821 29.3485 88.8618 27.3153 92.1909 27.2602C94.1497 27.2303 96.0419 27.8506 97.8628 28.5054C99.8239 29.2153 101.778 29.9367 103.737 30.6534L106.953 31.8297Z" fill="#3F3D56"/>
<path d="M107.87 109.727H61.2765C60.5207 109.727 59.7961 109.426 59.2617 108.892C58.7273 108.358 58.4266 107.634 58.4258 106.879V100.604C58.4266 99.8488 58.7273 99.1248 59.2617 98.5908C59.7961 98.0568 60.5207 97.7564 61.2765 97.7555H107.87C108.626 97.7564 109.35 98.0568 109.885 98.5908C110.419 99.1248 110.72 99.8488 110.721 100.604V106.879C110.72 107.634 110.419 108.358 109.885 108.892C109.35 109.426 108.626 109.727 107.87 109.727Z" fill="#F2F2F2"/>
<path d="M107.87 77.564H61.2765C60.5207 77.5631 59.7961 77.2627 59.2617 76.7287C58.7273 76.1947 58.4266 75.4706 58.4258 74.7154V68.4406C58.4266 67.6854 58.7273 66.9613 59.2617 66.4273C59.7961 65.8933 60.5207 65.5929 61.2765 65.592H107.87C108.626 65.5929 109.35 65.8933 109.885 66.4273C110.419 66.9613 110.72 67.6854 110.721 68.4406V74.7154C110.72 75.4706 110.419 76.1947 109.885 76.7287C109.35 77.2627 108.626 77.5631 107.87 77.564Z" fill="#F2F2F2"/>
<path d="M107.87 93.6458H61.2765C60.5207 93.6449 59.7961 93.3445 59.2617 92.8105C58.7273 92.2765 58.4266 91.5524 58.4258 90.7972V84.5224C58.4266 83.7672 58.7273 83.0431 59.2617 82.5091C59.7961 81.9751 60.5207 81.6747 61.2765 81.6738H107.87C108.626 81.6747 109.35 81.9751 109.885 82.5091C110.419 83.0431 110.72 83.7672 110.721 84.5224V90.7972C110.72 91.5524 110.419 92.2765 109.885 92.8105C109.35 93.3445 108.626 93.6449 107.87 93.6458Z" fill="#F2F2F2"/>
<path d="M90.2351 102.668H76.5067C76.3438 102.668 76.1876 102.603 76.0724 102.488C75.9573 102.373 75.8926 102.217 75.8926 102.054C75.8926 101.891 75.9573 101.735 76.0724 101.62C76.1876 101.505 76.3438 101.44 76.5067 101.44H90.2351C90.3979 101.44 90.5541 101.505 90.6693 101.62C90.7845 101.735 90.8492 101.891 90.8492 102.054C90.8492 102.217 90.7845 102.373 90.6693 102.488C90.5541 102.603 90.3979 102.668 90.2351 102.668Z" fill="white"/>
<path d="M103.438 106.043H76.3524C76.1895 106.043 76.0333 105.978 75.9182 105.863C75.803 105.748 75.7383 105.592 75.7383 105.429C75.7383 105.266 75.803 105.11 75.9182 104.995C76.0333 104.88 76.1895 104.815 76.3524 104.815H103.438C103.601 104.815 103.757 104.88 103.872 104.995C103.988 105.11 104.052 105.266 104.052 105.429C104.052 105.592 103.988 105.748 103.872 105.863C103.757 105.978 103.601 106.043 103.438 106.043Z" fill="white"/>
<path d="M69.2133 107.856C71.4874 107.856 73.3309 106.014 73.3309 103.741C73.3309 101.469 71.4874 99.627 69.2133 99.627C66.9392 99.627 65.0957 101.469 65.0957 103.741C65.0957 106.014 66.9392 107.856 69.2133 107.856Z" fill="white"/>
<path d="M68.2947 109.299C67.8745 109.103 67.3943 109.078 66.9562 109.231C66.5181 109.383 66.1568 109.7 65.949 110.114C65.9081 110.199 65.8743 110.287 65.848 110.378L59.6475 110.748L58.7285 113.958L67.1676 112.533C67.5514 112.613 67.951 112.564 68.304 112.393C68.657 112.223 68.9435 111.94 69.1189 111.59C69.2167 111.389 69.2741 111.172 69.2878 110.949C69.3014 110.726 69.2711 110.503 69.1985 110.292C69.1259 110.082 69.0124 109.887 68.8646 109.72C68.7168 109.553 68.5375 109.417 68.3369 109.319C68.3229 109.312 68.3089 109.306 68.2947 109.299Z" fill="#FFB6B6"/>
<path d="M54.6093 93.4657C54.2007 93.2986 53.7609 93.2214 53.3198 93.2394C52.8787 93.2573 52.4466 93.37 52.053 93.5697C51.6594 93.7694 51.3134 94.0515 51.0386 94.3968C50.7638 94.742 50.5667 95.1424 50.4606 95.5706L48.7559 102.45L49.0765 114.484C49.0765 114.484 57.9745 116.19 59.4683 115.094C60.962 113.997 60.8218 113.181 60.962 113.997C61.1023 114.813 61.7434 115.156 61.7523 114.831C61.7612 114.506 61.8338 114.562 62.206 114.464C62.5782 114.366 64.2211 113.761 64.2211 113.761L64.2947 110.33C64.2947 110.33 61.5787 109.301 60.9197 109.608C60.2608 109.915 61.06 110.424 60.2608 109.915C59.4616 109.406 59.3742 107.798 59.2376 109.247C59.1009 110.696 58.7009 110.966 58.1017 110.321C57.5025 109.677 54.7265 110.089 54.7265 110.089L56.493 96.7109C56.5819 96.038 56.4452 95.3547 56.1044 94.7676C55.7636 94.1805 55.2379 93.7227 54.6093 93.4657Z" fill="#80DFFF"/>
<path d="M114.532 129.154L114.625 126.62L104.888 125.053L104.75 128.793L114.532 129.154Z" fill="#FFB6B6"/>
<path d="M112.764 129.917L112.672 125.86L114.408 125.924L117.21 122.173C117.348 121.987 117.542 121.851 117.764 121.784C117.985 121.717 118.222 121.722 118.44 121.799C118.659 121.876 118.847 122.02 118.977 122.211C119.107 122.403 119.172 122.63 119.164 122.861L118.986 127.681L117.238 128.449L118.943 128.836L118.876 130.654L112.764 129.917Z" fill="#2F2E41"/>
<path d="M59.7305 134.965L90.5714 131.382C90.5714 131.382 103.89 132.15 107.014 130.119L110.309 129.703L110.488 124.867C110.488 124.867 108.473 124.882 107.315 124.342C106.156 123.803 106.961 123.143 105.857 123.792C104.752 124.441 104.869 124.519 104.015 124.221C103.161 123.922 63.9988 122.323 63.9988 122.323L59.7305 134.965Z" fill="#2F2E41"/>
<path d="M100.371 132.867L102.164 131.072L96.092 123.306L93.4453 125.954L100.371 132.867Z" fill="#FFB6B6"/>
<path d="M98.5547 132.225L101.249 129.187L102.478 130.414L107.085 129.569C107.312 129.527 107.547 129.559 107.756 129.66C107.964 129.761 108.134 129.926 108.241 130.131C108.349 130.335 108.388 130.569 108.354 130.798C108.319 131.026 108.212 131.238 108.049 131.401L104.638 134.814L102.834 134.189L103.82 135.632L102.534 136.918L98.5547 132.225Z" fill="#2F2E41"/>
<path d="M47.5625 118.087L47.8691 125.209C48.2301 133.593 57.47 138.667 64.6349 134.29C64.767 134.209 64.8995 134.126 65.0324 134.039C65.0324 134.039 67.7486 133.31 67.6662 132.156C67.5837 131.002 68.2473 130.44 68.8345 130.755C69.4217 131.07 77.1104 120.166 77.1104 120.166C77.1104 120.166 93.085 128.128 96.6091 130.003L100.328 128.991C100.328 128.991 101.727 129.651 101.223 128.696C100.719 127.741 100.628 128.198 100.473 127.157C100.319 126.116 99.9224 124.826 99.6822 124.88C99.442 124.935 79.9198 111.281 79.9198 111.281C79.9198 111.281 76.7394 108.065 72.7942 110.188C72.712 110.5 72.7823 110.511 72.7823 110.511L59.7499 121.122L57.9085 117.628L47.5625 118.087Z" fill="#2F2E41"/>
<path d="M56.3223 91.9195L50.7346 89.3026L49.0617 92.2113C49.0617 92.2113 44.5689 98.6179 44.5037 103.24C44.4385 107.862 45.2359 109.236 45.2359 109.236C45.2359 109.236 43.2987 110.683 44.2673 111.568C45.2359 112.453 47.3802 112.834 45.7332 113.218C44.0863 113.601 44.5037 117.484 46.343 118.173C48.1823 118.862 58.0602 118.856 58.0602 118.856C57.9714 118.555 57.9648 118.236 58.0413 117.931C58.1177 117.627 58.2742 117.349 58.4947 117.125C59.2604 116.358 59.9502 116.908 59.2604 115.714C58.5707 114.52 57.4211 115.209 58.3408 113.601C59.2604 111.993 59.2601 111.512 59.2601 111.512C59.2601 111.512 61.1349 107.947 58.311 104.079C58.1389 103.844 58.2836 103.834 58.2836 103.834L56.0033 96.1989L56.3223 91.9195Z" fill="#80DFFF"/>
<path d="M47.3176 80.9165C47.3649 82.0959 46.6211 83.7669 46.2548 84.7745C45.8632 85.8517 47.5605 87.2816 48.6469 87.5947C48.7035 87.2215 48.8898 86.8802 49.1731 86.6306C49.0948 86.9862 49.088 87.3539 49.153 87.7122L58.3375 89.8015C59.9898 87.8896 61.6511 85.1409 61.2887 81.8258C61.3755 81.1963 61.2743 80.5552 60.9977 79.983C60.7212 79.4107 60.2817 78.9329 59.7343 78.6094L55.0912 75.8685C53.1162 75.4192 50.629 75.148 49.2025 76.3691C48.5652 76.9357 48.0645 77.6392 47.7381 78.4268C47.4116 79.2143 47.2679 80.0655 47.3176 80.9165Z" fill="#2F2E41"/>
<path d="M55.5262 88.7915C58.4467 88.7915 60.8142 86.4258 60.8142 83.5075C60.8142 80.5892 58.4467 78.2235 55.5262 78.2235C52.6058 78.2235 50.2383 80.5892 50.2383 83.5075C50.2383 86.4258 52.6058 88.7915 55.5262 88.7915Z" fill="#FFB6B6"/>
<path d="M49.3313 80.6845L49.0762 81.8046L53.5373 82.8194C53.5412 82.5929 53.592 82.3696 53.6864 82.1636C53.7808 81.9576 53.9168 81.7734 54.0858 81.6224C53.9896 82.0616 54.0006 82.5174 54.1179 82.9515C56.5238 84.3005 58.6922 84.7784 60.6367 84.4344C60.9001 84.4943 61.1766 84.4472 61.4053 84.3035C61.6339 84.1597 61.7961 83.9311 61.8561 83.6678C62.6384 80.2338 60.5888 76.724 57.1691 75.8717C56.3379 75.664 55.4735 75.6242 54.6267 75.7547C53.7799 75.8852 52.9676 76.1833 52.2376 76.6316C51.5076 77.0799 50.8745 77.6692 50.3755 78.3652C49.8764 79.0612 49.5214 79.8497 49.3313 80.6845Z" fill="#2F2E41"/>
<path d="M51.9395 73.2948C52.5277 73.1672 53.1502 73.1981 53.6821 72.7999L53.3333 73.6C54.3003 73.3352 55.3312 73.4381 56.2268 73.8888C56.493 74.0081 56.7201 74.2002 56.8818 74.4429C56.9687 74.5895 57.0216 74.7538 57.0365 74.9235C57.0514 75.0933 57.028 75.2642 56.968 75.4237C56.9108 75.5606 56.8257 75.684 56.7181 75.7861C56.6105 75.8882 56.4828 75.9668 56.3431 76.0168C56.0955 76.0911 55.8361 76.1183 55.5784 76.0967C54.4928 76.0715 53.4071 76.0462 52.3215 76.0209C51.9077 76.0466 51.4943 75.9663 51.1203 75.7877C50.9214 75.6649 50.7628 75.4869 50.6638 75.2754C50.5648 75.0638 50.5297 74.828 50.563 74.5969C50.6665 73.8696 51.3512 73.4224 51.9395 73.2948Z" fill="#2F2E41"/>
<path d="M80.6253 114.708C80.6127 114.693 80.5982 114.679 80.5821 114.668C80.5426 114.622 80.4944 114.584 80.4404 114.557L80.0534 114.35L77.4846 111.5C77.3359 111.423 77.1629 111.406 77.0022 111.454L76.9956 111.456L75.8951 111.796L74.9487 112.09L73.6267 112.499L64.622 115.285L58.703 117.117C58.543 117.167 58.4092 117.279 58.3305 117.427C58.2519 117.575 58.2346 117.748 58.2824 117.909C58.3102 117.997 58.3562 118.079 58.4175 118.149L58.6059 118.358L59.0009 118.798L59.9162 120.693L60.1702 120.977C60.2511 121.067 60.3561 121.132 60.4727 121.165C60.5894 121.197 60.713 121.196 60.8291 121.161L80.3289 115.743C80.4302 115.71 80.5218 115.653 80.5958 115.577C80.6698 115.5 80.7238 115.406 80.7531 115.304C80.7824 115.202 80.7861 115.094 80.7638 114.99C80.7415 114.886 80.694 114.789 80.6253 114.708Z" fill="#CCCCCC"/>
<path d="M79.4664 86.5174L79.0888 86.5786C78.9853 86.5957 78.8927 86.6531 78.8314 86.7382L78.665 86.9707L77.1643 90.7204C77.1032 90.8061 77.0787 90.9126 77.0961 91.0164L77.2719 92.0848L76.6074 111.154C76.6242 111.253 76.6772 111.342 76.7561 111.403L79.6697 115.298L79.7377 115.352L79.8845 115.467C79.9597 115.525 80.0531 115.555 80.1481 115.551L80.3957 115.539C80.4519 115.536 80.507 115.521 80.5571 115.496C80.6073 115.47 80.6514 115.434 80.6867 115.391C80.7222 115.347 80.748 115.296 80.7623 115.242C80.7765 115.188 80.7789 115.131 80.7693 115.076L79.924 86.8437C79.9069 86.74 79.8493 86.6473 79.7639 86.5861C79.6784 86.5248 79.5721 86.5 79.4683 86.5171L79.4664 86.5174Z" fill="#CCCCCC"/>
<path d="M78.8339 87.9991L77.5045 92.0455L76.9902 108.209L79.0594 110.046L78.8339 87.9991Z" fill="#80DFFF"/>
<path d="M68.5545 112.654C68.1343 112.458 67.6541 112.433 67.216 112.585C66.7779 112.738 66.4165 113.055 66.2088 113.469C66.1679 113.554 66.1341 113.642 66.1077 113.732L59.9072 114.103L58.9883 117.313L67.4273 115.888C67.8112 115.968 68.2108 115.919 68.5638 115.748C68.9168 115.578 69.2033 115.295 69.3786 114.944C69.5763 114.54 69.6049 114.073 69.4583 113.647C69.3116 113.222 69.0017 112.871 68.5967 112.674C68.5827 112.667 68.5686 112.66 68.5545 112.654Z" fill="#FFB6B6"/>
<path d="M54.869 96.8204C54.4604 96.6533 54.0206 96.5761 53.5795 96.5941C53.1384 96.6121 52.7064 96.7247 52.3128 96.9244C51.9191 97.1242 51.5732 97.4062 51.2984 97.7515C51.0236 98.0968 50.8264 98.4971 50.7203 98.9253L49.0156 105.804L49.3363 117.839C49.3363 117.839 58.2343 119.545 59.7281 118.448C61.2218 117.352 61.0816 116.535 61.2218 117.352C61.3621 118.168 62.0032 118.511 62.0121 118.186C62.021 117.861 62.0935 117.917 62.4658 117.819C62.838 117.721 64.4809 117.116 64.4809 117.116L64.5545 113.685C64.5545 113.685 61.8384 112.656 61.1795 112.963C60.5205 113.27 61.3197 113.779 60.5205 113.27C59.7214 112.76 59.634 111.153 59.4974 112.602C59.3607 114.051 58.9607 114.32 58.3615 113.676C57.7623 113.032 54.9863 113.443 54.9863 113.443L56.7528 100.066C56.8416 99.3928 56.705 98.7094 56.3642 98.1223C56.0234 97.5352 55.4977 97.0774 54.869 96.8204Z" fill="#80DFFF"/>
<path d="M1.21094e-06 136.727C-0.000105943 136.763 0.00689936 136.798 0.0206116 136.831C0.0343239 136.865 0.0544747 136.895 0.079903 136.92C0.105331 136.946 0.135535 136.966 0.168779 136.979C0.202023 136.993 0.237649 137 0.273609 137H164.726C164.799 137 164.869 136.971 164.92 136.92C164.971 136.869 165 136.799 165 136.727C165 136.654 164.971 136.585 164.92 136.533C164.869 136.482 164.799 136.453 164.726 136.453H0.273595C0.237637 136.453 0.202013 136.46 0.168772 136.474C0.13553 136.488 0.105326 136.508 0.0798995 136.533C0.0544729 136.558 0.0343235 136.589 0.0206116 136.622C0.00689979 136.655 -0.000104714 136.691 1.21094e-06 136.727Z" fill="#CCCCCC"/>
<path d="M145.116 77.564H98.5226C97.7668 77.5631 97.0422 77.2627 96.5078 76.7287C95.9733 76.1947 95.6727 75.4706 95.6719 74.7154V68.4406C95.6727 67.6854 95.9733 66.9613 96.5078 66.4273C97.0422 65.8933 97.7668 65.5929 98.5226 65.592H145.116C145.872 65.5929 146.596 65.8933 147.131 66.4273C147.665 66.9613 147.966 67.6854 147.967 68.4406V74.7154C147.966 75.4706 147.665 76.1947 147.131 76.7287C146.596 77.2627 145.872 77.5631 145.116 77.564Z" fill="#E6E6E6"/>
<path d="M127.479 70.5042H113.751C113.588 70.5042 113.432 70.4395 113.317 70.3245C113.201 70.2094 113.137 70.0533 113.137 69.8905C113.137 69.7278 113.201 69.5717 113.317 69.4566C113.432 69.3415 113.588 69.2769 113.751 69.2769H127.479C127.642 69.2769 127.798 69.3415 127.913 69.4566C128.029 69.5717 128.093 69.7278 128.093 69.8905C128.093 70.0533 128.029 70.2094 127.913 70.3245C127.798 70.4395 127.642 70.5042 127.479 70.5042Z" fill="white"/>
<path d="M140.684 73.8793H113.599C113.436 73.8793 113.279 73.8147 113.164 73.6996C113.049 73.5845 112.984 73.4284 112.984 73.2656C112.984 73.1029 113.049 72.9468 113.164 72.8317C113.279 72.7166 113.436 72.652 113.599 72.652H140.684C140.847 72.652 141.003 72.7166 141.118 72.8317C141.234 72.9468 141.298 73.1029 141.298 73.2656C141.298 73.4284 141.234 73.5845 141.118 73.6996C141.003 73.8147 140.847 73.8793 140.684 73.8793Z" fill="white"/>
<path d="M106.457 75.6926C108.731 75.6926 110.575 73.8505 110.575 71.5781C110.575 69.3057 108.731 67.4636 106.457 67.4636C104.183 67.4636 102.34 69.3057 102.34 71.5781C102.34 73.8505 104.183 75.6926 106.457 75.6926Z" fill="white"/>
<path d="M130.173 93.6458H83.5792C82.8234 93.6449 82.0988 93.3445 81.5644 92.8105C81.03 92.2765 80.7294 91.5524 80.7285 90.7972V84.5224C80.7294 83.7672 81.03 83.0431 81.5644 82.5091C82.0988 81.9751 82.8234 81.6747 83.5792 81.6738H130.173C130.928 81.6747 131.653 81.9751 132.187 82.5091C132.722 83.0431 133.022 83.7672 133.023 84.5224V90.7972C133.022 91.5524 132.722 92.2765 132.187 92.8105C131.653 93.3445 130.928 93.6449 130.173 93.6458Z" fill="#E6E6E6"/>
<path d="M112.536 86.5859H98.8075C98.6446 86.5859 98.4884 86.5212 98.3732 86.4061C98.2581 86.291 98.1934 86.135 98.1934 85.9722C98.1934 85.8094 98.2581 85.6534 98.3732 85.5383C98.4884 85.4232 98.6446 85.3585 98.8075 85.3585H112.536C112.699 85.3585 112.855 85.4232 112.97 85.5383C113.085 85.6534 113.15 85.8094 113.15 85.9722C113.15 86.135 113.085 86.291 112.97 86.4061C112.855 86.5212 112.699 86.5859 112.536 86.5859Z" fill="white"/>
<path d="M125.739 89.961H98.6532C98.4903 89.961 98.3341 89.8963 98.2189 89.7813C98.1038 89.6662 98.0391 89.5101 98.0391 89.3473C98.0391 89.1846 98.1038 89.0285 98.2189 88.9134C98.3341 88.7983 98.4903 88.7336 98.6532 88.7336H125.739C125.902 88.7336 126.058 88.7983 126.173 88.9134C126.288 89.0285 126.353 89.1846 126.353 89.3473C126.353 89.5101 126.288 89.6662 126.173 89.7813C126.058 89.8963 125.902 89.961 125.739 89.961Z" fill="white"/>
<path d="M91.5141 91.7743C93.7881 91.7743 95.6316 89.9322 95.6316 87.6598C95.6316 85.3874 93.7881 83.5453 91.5141 83.5453C89.24 83.5453 87.3965 85.3874 87.3965 87.6598C87.3965 89.9322 89.24 91.7743 91.5141 91.7743Z" fill="white"/>
</g>
<defs>
<clipPath id="clip0_307_670">
<rect width="165" height="137" fill="white"/>
</clipPath>
</defs>
</svg>
