<?xml version="1.0" encoding="utf-8"?>
<!-- Generator: Adobe Illustrator 23.0.3, SVG Export Plug-In . SVG Version: 6.00 Build 0)  -->
<svg version="1.1" id="Layer_1" xmlns="http://www.w3.org/2000/svg" xmlns:xlink="http://www.w3.org/1999/xlink" x="0px" y="0px"
	 viewBox="0 0 217 74" style="enable-background:new 0 0 217 74;" xml:space="preserve">
<style type="text/css">
	.st0{fill:#333333;}
	.st1{fill:#FFFFFF;}
	.st2{fill:#D1D1D1;}
	.st3{fill:#B2B2B2;}
</style>
<g>
	<g>
		<g>
			<path class="st0" d="M95.92,26.59V12.43c0-6.83,5.14-9.38,11.88-9.38c6.68,0,11.94,2.55,11.94,9.38v14.16
				c0,6.83-5.26,9.38-11.94,9.38C101.07,35.97,95.92,33.43,95.92,26.59z M116.79,12.43c0-4.96-3.37-7.24-8.99-7.24
				c-5.62,0-8.93,2.28-8.93,7.24v14.16c0,4.96,3.31,7.24,8.93,7.24c5.62,0,8.99-2.28,8.99-7.24V12.43z"/>
			<path class="st0" d="M149.02,34.05L131.63,8.32v26.4c0,0.67-0.71,0.98-1.48,0.98c-0.71,0-1.48-0.31-1.48-0.98V3.99
				c0-0.71,0.71-0.94,1.48-0.94c1.06,0,1.89,1.07,2.42,1.83l17.09,25.51V3.99c0-0.67,0.77-0.94,1.48-0.94
				c0.77,0,1.48,0.27,1.48,0.94v30.73c0,0.67-0.71,0.98-1.48,0.98C150.26,35.71,149.55,34.81,149.02,34.05z"/>
			<path class="st0" d="M182.3,34.05L164.92,8.32v26.4c0,0.67-0.71,0.98-1.48,0.98c-0.71,0-1.48-0.31-1.48-0.98V3.99
				c0-0.71,0.71-0.94,1.48-0.94c1.06,0,1.89,1.07,2.42,1.83l17.09,25.51V3.99c0-0.67,0.77-0.94,1.48-0.94
				c0.77,0,1.48,0.27,1.48,0.94v30.73c0,0.67-0.71,0.98-1.48,0.98C183.54,35.71,182.83,34.81,182.3,34.05z"/>
			<path class="st0" d="M204.3,21.46l-8.75,12.78c-0.41,0.63-0.89,1.52-1.77,1.52c-0.77,0-1.66-0.49-1.66-1.12
				c0-0.18,0.12-0.36,0.24-0.58l10.17-14.7l-9.99-14.56c-0.24-0.31-0.36-0.58-0.36-0.85c0-0.58,0.71-0.94,1.66-0.94
				c0.83,0,1.42,0.85,1.89,1.56l8.57,12.64l8.63-12.64c0.47-0.62,1.01-1.56,1.89-1.56c0.95,0,1.66,0.36,1.66,0.94
				c0,0.27-0.12,0.54-0.36,0.85l-10.05,14.56l10.23,14.7c0.12,0.22,0.24,0.4,0.24,0.58c0,0.63-0.83,1.12-1.66,1.12
				c-0.89,0-1.36-0.89-1.77-1.52L204.3,21.46z"/>
		</g>
		<g>
			<path class="st0" d="M109.47,53.62c0-2.28-0.65-3.95-1.94-4.97c-1.29-1.02-2.99-1.53-5.06-1.53l-5.65,0
				c-0.43,0.05-0.64,0.26-0.64,0.62v23.54c0,0.43,0.22,0.65,0.65,0.65s0.65-0.22,0.65-0.65V60.15h4.94l5.4,10.53l0.01,0.02h0.01
				c0.01,0.01,0.05,0.06,0.14,0.24l0.14,0.38c0.05,0.07,0.11,0.16,0.19,0.27c0.08,0.12,0.17,0.2,0.25,0.25
				c0.08,0.05,0.18,0.07,0.27,0.07c0.19,0,0.35-0.06,0.47-0.18c0.12-0.12,0.18-0.28,0.18-0.47c0-0.12-0.04-0.25-0.11-0.39
				l-5.55-10.8C107.57,59.61,109.47,57.44,109.47,53.62z M108.17,53.62c0,1.78-0.51,3.11-1.52,3.96c-1.01,0.85-2.42,1.28-4.18,1.28
				h-5V48.42h5c1.76,0,3.17,0.42,4.18,1.26C107.66,50.51,108.17,51.83,108.17,53.62z"/>
			<path class="st0" d="M127.25,47.12c-0.43,0-0.65,0.21-0.65,0.62v17.38c0,1.9-0.47,3.34-1.39,4.28c-0.92,0.95-2.26,1.42-3.98,1.42
				c-1.72,0-3.05-0.48-3.96-1.42c-0.91-0.95-1.38-2.39-1.38-4.28V47.73c0-0.41-0.22-0.62-0.65-0.62s-0.65,0.21-0.65,0.62v17.38
				c0,2.41,0.61,4.2,1.8,5.32c1.2,1.12,2.82,1.68,4.83,1.68s3.64-0.57,4.85-1.68c1.21-1.12,1.82-2.91,1.82-5.32V47.73
				C127.9,47.32,127.68,47.12,127.25,47.12z"/>
			<path class="st0" d="M147.3,47.12c-0.43,0-0.65,0.21-0.65,0.62V68.7l-10.27-20.34c-0.46-0.83-0.82-1.24-1.08-1.24
				c-0.43,0-0.65,0.21-0.65,0.62v23.54c0,0.43,0.22,0.65,0.65,0.65c0.43,0,0.65-0.22,0.65-0.65V50.3l10.34,20.38
				c0.42,0.83,0.75,1.24,1.02,1.24c0.43,0,0.65-0.22,0.65-0.65V47.73C147.95,47.32,147.74,47.12,147.3,47.12z"/>
			<path class="st0" d="M166.38,47.12h-13.22c-0.19,0-0.35,0.07-0.47,0.2c-0.12,0.13-0.18,0.28-0.18,0.45
				c0,0.17,0.06,0.32,0.18,0.45c0.12,0.13,0.28,0.2,0.47,0.2h5.98v22.85c0,0.43,0.22,0.65,0.65,0.65c0.43,0,0.65-0.22,0.65-0.65
				V48.42h5.95c0.43,0,0.65-0.23,0.65-0.68C167.03,47.32,166.81,47.12,166.38,47.12z"/>
			<path class="st0" d="M172.23,47.12c-0.43,0-0.65,0.21-0.65,0.62v23.54c0,0.43,0.22,0.65,0.65,0.65c0.43,0,0.65-0.22,0.65-0.65
				V47.73C172.88,47.32,172.66,47.12,172.23,47.12z"/>
			<path class="st0" d="M195.66,47.12c-0.27,0-0.62,0.41-1.08,1.24l-6.56,12.85l-6.53-12.85c-0.46-0.83-0.82-1.24-1.08-1.24
				c-0.43,0-0.65,0.21-0.65,0.62v23.54c0,0.43,0.22,0.65,0.65,0.65c0.43,0,0.65-0.22,0.65-0.65V50.3l6.28,12.16
				c0.21,0.45,0.43,0.67,0.68,0.67c0.22,0,0.44-0.22,0.68-0.66l6.31-12.16v20.97c0,0.43,0.22,0.65,0.65,0.65
				c0.43,0,0.65-0.22,0.65-0.65V47.73C196.31,47.32,196.09,47.12,195.66,47.12z"/>
			<path class="st0" d="M215.89,70.62H204.5V60.15h5.37c0.41,0,0.62-0.21,0.62-0.62c0-0.45-0.21-0.68-0.62-0.68h-5.37V48.42h11.39
				c0.41,0,0.62-0.23,0.62-0.68c0-0.4-0.21-0.62-0.62-0.62h-12.04c-0.43,0-0.65,0.22-0.65,0.65v23.5c0,0.43,0.22,0.65,0.65,0.65
				h12.04c0.41,0,0.62-0.21,0.62-0.62C216.5,70.85,216.29,70.62,215.89,70.62z"/>
		</g>
	</g>
	<g>
		<g>
			<polygon class="st1" points="58.11,20.09 39.33,41.08 39.33,1.31 			"/>
			<polyline class="st2" points="58.11,20.09 46,33.49 39.33,20.09 			"/>
			<path class="st3" d="M39.33,1.31l18.77,18.78H39.33C39.33,20.09,39.33,1.43,39.33,1.31z"/>
		</g>
		<g>
			<polygon class="st1" points="24.76,16.72 38.93,41.06 1.1,28.77 			"/>
			<polyline class="st2" points="24.76,16.72 33.77,32.37 18.96,34.57 			"/>
			<path class="st3" d="M1.1,28.77l23.66-12.05l-5.8,17.85C18.96,34.57,1.22,28.81,1.1,28.77z"/>
		</g>
		<g>
			<polygon class="st1" points="11.25,47.38 38.78,41.44 15.4,73.61 			"/>
			<polyline class="st2" points="11.25,47.38 28.92,43.65 26.44,58.42 			"/>
			<path class="st3" d="M15.4,73.61l-4.15-26.23l15.19,11.03C26.44,58.42,15.48,73.51,15.4,73.61z"/>
		</g>
		<g>
			<polygon class="st1" points="36.25,69.71 39.1,41.69 62.47,73.87 			"/>
			<polyline class="st2" points="36.25,69.71 38.16,51.75 51.43,58.67 			"/>
			<path class="st3" d="M62.47,73.87l-26.23-4.16l15.19-11.03C51.43,58.67,62.4,73.77,62.47,73.87z"/>
		</g>
		<g>
			<polygon class="st1" points="65.2,52.84 39.44,41.47 77.26,29.18 			"/>
			<polyline class="st2" points="65.2,52.84 48.71,45.47 59.4,34.98 			"/>
			<path class="st3" d="M77.26,29.18L65.2,52.84l-5.8-17.85C59.4,34.98,77.14,29.22,77.26,29.18z"/>
		</g>
		<path class="st0" d="M77.49,28.79c-0.13-0.15-0.33-0.21-0.52-0.15l-0.02,0.01L40.49,40.5l17.87-19.98c0,0,0,0,0-0.01
			c0.02-0.02,0.04-0.04,0.05-0.07c0,0,0-0.01,0.01-0.01c0.01-0.02,0.02-0.03,0.03-0.05c0,0,0-0.01,0-0.01
			c0-0.01,0.01-0.02,0.01-0.03c0.01-0.02,0.01-0.04,0.01-0.05c0-0.01,0-0.02,0-0.03c0-0.02,0-0.04,0-0.06c0-0.01,0-0.01,0-0.02
			c0-0.03,0-0.05-0.01-0.08c0-0.01,0-0.01-0.01-0.02c-0.01-0.02-0.01-0.04-0.02-0.06c0-0.01-0.01-0.02-0.01-0.03
			c-0.01-0.02-0.02-0.03-0.03-0.05c0-0.01-0.01-0.02-0.01-0.02c-0.02-0.02-0.03-0.05-0.05-0.07L39.56,1.08
			c-0.14-0.14-0.35-0.18-0.53-0.11c-0.18,0.08-0.3,0.25-0.3,0.45v0.02v38.34L25.26,16.61c0,0,0,0,0-0.01
			c-0.01-0.02-0.03-0.05-0.05-0.07c0,0-0.01-0.01-0.01-0.01c-0.01-0.01-0.03-0.03-0.04-0.04c0,0-0.01,0-0.01-0.01
			c-0.01-0.01-0.02-0.01-0.02-0.02c-0.02-0.01-0.03-0.02-0.05-0.03c-0.01,0-0.02-0.01-0.03-0.01c-0.02-0.01-0.04-0.02-0.06-0.02
			c-0.01,0-0.01,0-0.02-0.01c-0.03-0.01-0.05-0.01-0.08-0.02c-0.01,0-0.01,0-0.02,0c-0.02,0-0.04,0-0.06,0c-0.01,0-0.02,0-0.03,0
			c-0.02,0-0.04,0.01-0.06,0.01c-0.01,0-0.02,0-0.03,0.01c-0.03,0.01-0.05,0.02-0.08,0.03L0.96,28.48
			c-0.17,0.09-0.28,0.27-0.26,0.47c0.02,0.2,0.15,0.36,0.33,0.42l0.02,0.01l36.46,11.85l-26.2,5.66c0,0,0,0-0.01,0
			c-0.03,0.01-0.05,0.01-0.08,0.03c0,0-0.01,0-0.01,0.01c-0.02,0.01-0.03,0.02-0.05,0.03c0,0-0.01,0.01-0.01,0.01
			c-0.01,0.01-0.02,0.01-0.02,0.02c-0.01,0.01-0.03,0.02-0.04,0.04c-0.01,0.01-0.01,0.01-0.02,0.02c-0.01,0.01-0.03,0.03-0.04,0.05
			c0,0.01-0.01,0.01-0.01,0.02c-0.02,0.02-0.03,0.05-0.04,0.07c0,0.01,0,0.01-0.01,0.02c-0.01,0.02-0.01,0.04-0.02,0.06
			c0,0.01,0,0.02-0.01,0.03c0,0.02-0.01,0.04-0.01,0.06c0,0.01,0,0.02,0,0.03c0,0.03,0,0.06,0.01,0.09l4.15,26.23
			c0.03,0.19,0.17,0.35,0.37,0.4c0.19,0.05,0.39-0.03,0.51-0.19l0.01-0.02L38.5,42.84L35.79,69.5c0,0,0,0,0,0.01
			c0,0.03,0,0.06,0,0.09c0,0,0,0.01,0,0.01c0,0.02,0,0.04,0.01,0.06c0,0,0,0.01,0,0.01c0,0.01,0.01,0.02,0.01,0.03
			c0.01,0.02,0.01,0.03,0.02,0.05c0,0.01,0.01,0.02,0.01,0.03c0.01,0.02,0.02,0.04,0.03,0.05c0,0.01,0.01,0.01,0.01,0.02
			c0.02,0.02,0.04,0.04,0.06,0.06c0,0,0.01,0.01,0.01,0.01c0.02,0.01,0.03,0.03,0.05,0.04c0.01,0.01,0.02,0.01,0.02,0.01
			c0.02,0.01,0.03,0.02,0.05,0.02c0.01,0,0.02,0.01,0.03,0.01c0.03,0.01,0.05,0.02,0.08,0.02l26.23,4.16
			c0.19,0.03,0.39-0.06,0.49-0.23c0.1-0.17,0.09-0.38-0.02-0.54l-0.01-0.02L40.34,42.39l24.52,10.82c0,0,0,0,0.01,0
			c0.03,0.01,0.05,0.02,0.08,0.03c0,0,0.01,0,0.01,0c0.02,0,0.04,0.01,0.06,0.01c0,0,0.01,0,0.01,0c0.01,0,0.02,0,0.03,0
			c0.02,0,0.04,0,0.06,0c0.01,0,0.02,0,0.03,0c0.02,0,0.04-0.01,0.06-0.02c0.01,0,0.01,0,0.02-0.01c0.03-0.01,0.05-0.02,0.07-0.03
			c0.01,0,0.01-0.01,0.02-0.01c0.02-0.01,0.04-0.02,0.05-0.04c0.01-0.01,0.01-0.01,0.02-0.02c0.01-0.01,0.03-0.03,0.04-0.04
			c0.01-0.01,0.01-0.01,0.02-0.02c0.02-0.02,0.03-0.05,0.05-0.07l12.06-23.66C77.64,29.15,77.61,28.94,77.49,28.79z M46.01,32.75
			L40,20.69h16.9L46.01,32.75z M56.36,19.26l0.46,0.46H39.7c0-2.45,0-13.48,0-17.12L56.36,19.26z M39.7,22.26l5.65,11.35l-5.65,6.31
			V22.26z M2.44,28.81l21-10.7l0.58-0.29L18.72,34.1C16.4,33.34,5.9,29.94,2.44,28.81z M24.96,18.05l8.11,14.09l-13.33,1.98
			L24.96,18.05z M33.68,33.02l4.26,7.32l-16.8-5.46L33.68,33.02z M15.86,72.35l-3.68-23.28l-0.1-0.64L25.92,58.5
			C24.48,60.48,18,69.41,15.86,72.35z M12.58,47.61l15.91-3.36l-2.23,13.29L12.58,47.61z M27.42,56.44l2.1-12.5l8.28-1.79
			L27.42,56.44z M61.42,73.05l-23.28-3.69l-0.64-0.1l13.85-10.06C52.79,61.17,59.27,70.1,61.42,73.05z M36.87,68.52l1.72-16.17
			l11.95,6.23L36.87,68.52z M38.62,51.27l0.86-8.43l10.38,14.29L38.62,51.27z M40.65,41.47l16.8-5.46l-9.05,8.88L40.65,41.47z
			 M49.42,45.25l9.62-9.44l5.22,16.07L49.42,45.25z M65.45,50.93l-0.29,0.58l-5.29-16.28c2.33-0.76,12.82-4.17,16.29-5.29
			L65.45,50.93z"/>
	</g>
</g>
<g>
</g>
<g>
</g>
<g>
</g>
<g>
</g>
<g>
</g>
<g>
</g>
<g>
</g>
<g>
</g>
<g>
</g>
<g>
</g>
<g>
</g>
<g>
</g>
<g>
</g>
<g>
</g>
<g>
</g>
</svg>
