<?xml version="1.0" encoding="UTF-8" standalone="no"?>
<svg
   xmlns:dc="http://purl.org/dc/elements/1.1/"
   xmlns:cc="http://creativecommons.org/ns#"
   xmlns:rdf="http://www.w3.org/1999/02/22-rdf-syntax-ns#"
   xmlns:svg="http://www.w3.org/2000/svg"
   xmlns="http://www.w3.org/2000/svg"
   id="svg30"
   viewBox="0 0 230.66501 48.746779"
   version="1.1"
   height="184.24295"
   width="871.81573">
  <metadata
     id="metadata36">
    <rdf:RDF>
      <cc:Work
         rdf:about="">
        <dc:format>image/svg+xml</dc:format>
        <dc:type
           rdf:resource="http://purl.org/dc/dcmitype/StillImage" />
        <dc:title></dc:title>
      </cc:Work>
    </rdf:RDF>
  </metadata>
  <defs
     id="defs34" />
  <g
     transform="translate(1.2207031e-6,-1.1079971e-4)"
     id="g887">
    <path
       style="fill:#0078d4"
       id="path2"
       d="M 95.55,38.885 H 89.5343 L 83.6685,16.557 77.7381,38.885 H 71.5895 L 63.5242,9.863 h 5.4563 l 5.8161,23.085 6.3496,-23.085 h 5.5112 l 5.9683,23.222 5.5238,-23.222 h 5.2685 z" />
    <path
       style="fill:#0078d4"
       id="path4"
       d="m 111.13,11.986 c 0,0.7846 -0.28906,1.4384 -0.86717,1.9615 -0.56435,0.52306 -1.2526,0.78459 -2.0647,0.78459 -0.81212,0 -1.5004,-0.26156 -2.0647,-0.78459 -0.56435,-0.52307 -0.84652,-1.1769 -0.84652,-1.9615 0,-0.79834 0.28217,-1.4659 0.84652,-2.0028 0.57812,-0.53682 1.2664,-0.80524 2.0647,-0.80524 0.83965,0 1.5348,0.27534 2.0854,0.82588 0.56434,0.55062 0.84652,1.2113 0.84652,1.9821 z m -5.442,26.898 V 17.969 h 4.876 v 20.915 z" />
    <path
       style="fill:#0078d4"
       id="path6"
       d="M 129.33,38.885 V 27.24 c 0,-3.0511 -0.94643,-5.6831 -4.0201,-5.6831 -3.0577,0 -4.9966,2.7533 -4.9966,5.5386 v 11.789 h -4.7695 v -20.915 h 4.7695 v 2.9584 h 0.0826 c 1.5829,-2.4506 3.8679,-3.3111 6.8548,-3.3111 2.2436,0 3.978,0.55225 5.203,1.9838 1.2388,1.4315 1.7827,3.6063 1.7827,6.5245 v 12.759 z" />
    <path
       style="fill:#0078d4"
       id="path8"
       d="m 153.28,38.885 v -2.6924 h -0.0826 c -1.5141,2.5465 -4.6048,3.1336 -6.7596,3.1336 -6.4042,0 -8.7543,-4.9749 -8.7543,-10.269 0,-3.51 0.87406,-6.318 2.6222,-8.424 1.7619,-2.1198 4.1156,-3.0373 7.0613,-3.0373 4.5855,0 5.8305,2.5513 5.8305,2.5513 h 0.0826 V 8.0432 h 4.9473 v 30.842 z m 0.0413,-11.918 c 0,-2.5265 -1.6236,-5.397 -5.0504,-5.397 -3.92,0 -5.4434,3.4113 -5.4434,7.343 0,3.4326 1.4375,6.548 5.1705,6.5997 3.6604,0 5.2936,-3.4887 5.3233,-6.3726 z" />
    <path
       style="fill:#0078d4"
       id="path10"
       d="m 183.186,28.335 c 0,7.2446 -4.3298,11.169 -10.832,11.169 -7.0707,0 -10.695,-4.2328 -10.695,-10.715 0,-7.4157 4.3429,-11.273 11.211,-11.273 6.2932,0 10.316,4.0228 10.316,10.819 z m -5.0794,0.1651 c 0,-3.2231 -1.1425,-6.8059 -5.5051,-6.8059 -4.1842,0 -5.8097,3.1138 -5.8097,6.9298 0,4.1456 1.9524,6.7824 5.7799,6.7824 4.1005,0 5.5051,-3.1471 5.535,-6.9063 z" />
    <path
       style="fill:#0078d4"
       id="path12"
       d="m 209.356,38.885 h -5.3811 l -4.1133,-15.137 -4.4127,15.137 h -5.223 l -6.0846,-20.851 h 5.1062 l 3.9735,16.199 4.6441,-16.199 h 4.7894 l 4.1408,16.157 3.8735,-16.157 h 4.6797 z" />
    <path
       style="fill:#0078d4"
       id="path14"
       d="m 230.665,33.063 c 0,4.6565 -4.2225,6.4714 -8.4554,6.4714 -2.7569,0 -5.5019,-1.0619 -5.5019,-1.0619 v -4.9529 c 0,0 2.3861,2.0793 5.7192,2.1052 2.2849,0 3.3142,-0.72057 3.3142,-2.0924 0.0564,-1.1006 -0.61364,-1.7075 -1.4147,-2.1625 -0.55059,-0.33035 -1.4109,-0.73641 -2.5809,-1.2182 -1.3765,-0.59187 -2.4019,-1.1631 -3.0764,-1.7137 -0.6607,-0.55058 -1.1562,-1.1975 -1.4866,-1.9408 -0.31658,-0.74329 -0.55035,-1.5601 -0.55035,-2.5512 0,-3.76 3.1359,-6.4167 8.1485,-6.4167 3.313,0 4.7488,0.81239 4.7488,0.81239 v 4.7052 c 0,0 -2.3545,-1.6272 -4.8008,-1.642 -1.7529,0 -3.0784,0.6382 -3.1016,2.0825 -0.0123,1.8616 2.2673,2.769 3.6284,3.3197 1.9821,0.79835 3.4326,1.6506 4.2447,2.6279 0.81212,0.9773 1.1648,1.9614 1.1648,3.6282 z" />
    <rect
       style="fill:#0078d4"
       id="rect18"
       height="23.105"
       width="23.105"
       y="4.7302245e-07"
       x="-1.2207031e-06" />
    <rect
       style="fill:#0078d4"
       id="rect20"
       height="23.105"
       width="23.105"
       y="4.7302245e-07"
       x="25.639997" />
    <rect
       style="fill:#0078d4"
       id="rect22"
       height="23.105"
       width="23.105"
       y="25.642"
       x="-1.2207031e-06" />
    <rect
       style="fill:#0078d4"
       id="rect24"
       height="23.105"
       width="23.105"
       y="25.642"
       x="25.639997" />
  </g>
</svg>
