<svg version="1.0" xmlns="http://www.w3.org/2000/svg"
 width="175.000000pt" height="165.000000pt" viewBox="0 0 175.000000 165.000000" stroke="currentColor"
 preserveAspectRatio="xMidYMid meet">
<title>ONNX Runtime Logo</title>
<g transform="translate(0.000000,165.000000) scale(0.100000,-0.100000)"
fill="#000000" stroke="none">
<path d="M858 1206 l-3 -423 -145 249 c-80 137 -148 252 -152 254 -10 7 -531
-258 -535 -271 -2 -6 177 -69 397 -140 219 -71 397 -131 394 -134 -3 -3 -132
-33 -287 -67 -255 -55 -282 -62 -280 -80 5 -42 83 -540 88 -562 3 -13 10 -20
15 -17 5 3 118 156 252 340 133 184 244 332 247 330 2 -3 -9 -133 -25 -289
-16 -157 -26 -287 -24 -289 8 -8 592 -99 597 -93 4 4 -405 577 -480 674 -5 7
-8 14 -6 16 2 2 123 -50 269 -114 146 -65 268 -115 271 -111 17 18 272 531
267 536 -5 5 -381 -113 -795 -250 -7 -3 -13 -3 -13 0 0 2 88 102 195 222 l195
218 -212 212 c-117 117 -216 213 -220 213 -4 0 -9 -191 -10 -424z m212 199
l185 -185 -188 0 -187 0 0 185 c0 102 1 185 3 185 1 0 85 -83 187 -185z m-543
-162 c-3 -5 -28 -81 -56 -170 -41 -129 -55 -163 -69 -163 -10 0 -89 24 -177
53 l-159 54 224 116 c216 112 246 126 237 110z m122 -152 c45 -79 80 -145 79
-146 -3 -3 -270 -45 -281 -45 -2 0 21 79 51 175 31 96 59 171 63 167 3 -4 43
-72 88 -151z m601 101 c0 -5 -51 -65 -114 -134 l-114 -126 -61 125 c-34 68
-61 129 -61 134 0 5 74 9 175 9 96 0 175 -4 175 -8z m-304 -159 c37 -81 52
-123 47 -135 -8 -17 -101 -118 -108 -118 -3 0 -5 83 -5 185 0 102 2 185 5 185
3 0 30 -53 61 -117z m622 -278 c-62 -124 -115 -225 -118 -225 -5 0 -110 310
-114 334 -1 8 300 113 331 115 7 1 -38 -100 -99 -224z m-777 93 c23 -40 43
-76 45 -79 2 -4 -71 17 -164 47 -92 29 -171 54 -176 54 -55 1 151 45 231 49
17 1 31 -15 64 -71z m378 -94 l-95 -95 -85 38 -84 39 170 56 c94 31 174 56
180 57 5 1 -33 -42 -86 -95z m200 -74 c28 -85 51 -158 51 -163 0 -8 -17 -2
-194 78 l-128 58 103 98 c57 53 107 94 110 91 4 -4 30 -77 58 -162z m-638
-109 c-56 -77 -106 -143 -110 -145 -9 -6 31 240 42 250 8 8 160 43 166 38 2
-2 -43 -66 -98 -143z m259 -22 c56 -77 100 -142 98 -144 -2 -2 -54 22 -116 53
l-113 57 7 80 c6 74 10 95 18 95 2 0 50 -63 106 -141z m-363 94 c-3 -16 -13
-79 -23 -140 -10 -62 -21 -113 -25 -113 -12 0 -289 203 -284 208 4 5 301 70
324 71 9 1 12 -7 8 -26z m-202 -179 c92 -66 143 -110 138 -117 -3 -7 -52 -75
-107 -151 -71 -98 -102 -134 -104 -120 -1 10 -20 126 -41 257 -20 130 -36 237
-34 237 2 0 69 -48 148 -106z m597 -179 c-53 -39 -121 -88 -151 -109 l-53 -39
5 39 c4 21 11 91 17 154 18 183 0 172 150 94 l129 -68 -97 -71z m223 -91 c59
-80 105 -147 103 -150 -5 -4 -488 72 -494 79 -4 3 264 208 283 216 1 1 50 -65
108 -145z"/>
</g>
</svg>
