<?xml version="1.0" encoding="utf-8"?>
<!-- Generator: Adobe Illustrator 22.1.0, SVG Export Plug-In . SVG Version: 6.00 Build 0)  -->
<svg version="1.1" id="Layer_1" xmlns="http://www.w3.org/2000/svg" xmlns:xlink="http://www.w3.org/1999/xlink" x="0px" y="0px"
	 viewBox="0 0 1080 1080" style="enable-background:new 0 0 1080 1080;" xml:space="preserve">
<style type="text/css">
	.st0{fill:#333333;}
	.st1{fill:#666666;}
	.st2{fill:#B2B2B2;}
	.st3{fill:#898989;}
	.st4{fill:#FFFFFF;}
	.st5{fill:#D1D1D1;}
</style>
<g>
	<g>
		<polygon class="st4" points="755.3,341.6 542.1,579.9 542.1,128.3 		"/>
		<polyline class="st5" points="755.3,341.6 617.9,493.8 542.1,341.6 		"/>
		<path class="st2" d="M542.1,128.3l213.2,213.2H542.1C542.1,341.6,542.1,129.7,542.1,128.3z"/>
	</g>
	<g>
		<polygon class="st4" points="376.7,303.3 537.5,579.7 108,440.1 		"/>
		<polyline class="st5" points="376.7,303.3 479,481 310.8,506 		"/>
		<path class="st2" d="M108,440.1l268.7-136.8L310.8,506C310.8,506,109.4,440.5,108,440.1z"/>
	</g>
	<g>
		<polygon class="st4" points="223.3,651.5 535.8,584 270.4,949.3 		"/>
		<polyline class="st5" points="223.3,651.5 423.9,609.1 395.7,776.8 		"/>
		<path class="st2" d="M270.4,949.3l-47.1-297.8l172.4,125.3C395.7,776.8,271.2,948.2,270.4,949.3z"/>
	</g>
	<g>
		<polygon class="st4" points="507.1,905 539.4,586.9 804.8,952.2 		"/>
		<polyline class="st5" points="507.1,905 528.8,701.1 679.5,779.7 		"/>
		<path class="st2" d="M804.8,952.2L507.1,905l172.4-125.3C679.5,779.7,804,951.1,804.8,952.2z"/>
	</g>
	<g>
		<polygon class="st4" points="835.8,713.4 543.3,584.3 972.7,444.8 		"/>
		<polyline class="st5" points="835.8,713.4 648.6,629.8 770,510.7 		"/>
		<path class="st2" d="M972.7,444.8L835.8,713.4L770,510.7C770,510.7,971.4,445.2,972.7,444.8z"/>
	</g>
	<path class="st0" d="M975.3,440.4c-1.4-1.7-3.8-2.3-5.9-1.7l-0.2,0.1l-414,134.5l202.9-226.8c0,0,0,0,0.1-0.1
		c0.2-0.2,0.4-0.5,0.6-0.8c0,0,0-0.1,0.1-0.1c0.1-0.2,0.2-0.4,0.3-0.6c0,0,0-0.1,0-0.1c0-0.1,0.1-0.2,0.1-0.3
		c0.1-0.2,0.1-0.4,0.2-0.6c0-0.1,0-0.2,0.1-0.3c0-0.2,0-0.5,0-0.7c0-0.1,0-0.2,0-0.2c0-0.3,0-0.6-0.1-0.9c0-0.1,0-0.1-0.1-0.2
		c-0.1-0.2-0.1-0.5-0.2-0.7c0-0.1-0.1-0.2-0.1-0.3c-0.1-0.2-0.2-0.4-0.3-0.6c-0.1-0.1-0.1-0.2-0.2-0.3c-0.2-0.3-0.4-0.5-0.6-0.7
		L544.7,125.7c-1.6-1.6-3.9-2.1-6-1.2c-2.1,0.9-3.4,2.9-3.4,5.1v0.2v435.3l-153-263c0,0,0,0,0-0.1c-0.2-0.3-0.3-0.5-0.6-0.8
		c0,0-0.1-0.1-0.1-0.1c-0.1-0.2-0.3-0.3-0.5-0.5c0,0-0.1-0.1-0.1-0.1c-0.1-0.1-0.2-0.1-0.3-0.2c-0.2-0.1-0.3-0.2-0.5-0.3
		c-0.1-0.1-0.2-0.1-0.3-0.2c-0.2-0.1-0.4-0.2-0.6-0.3c-0.1,0-0.1-0.1-0.2-0.1c-0.3-0.1-0.6-0.1-0.9-0.2c-0.1,0-0.1,0-0.2,0
		c-0.2,0-0.5,0-0.7,0c-0.1,0-0.2,0-0.3,0c-0.2,0-0.4,0.1-0.6,0.1c-0.1,0-0.2,0-0.3,0.1c-0.3,0.1-0.6,0.2-0.9,0.4L106.4,436.8
		c-2,1-3.2,3.1-3,5.3c0.2,2.2,1.7,4.1,3.8,4.8l0.2,0.1l414,134.5l-297.4,64.3c0,0-0.1,0-0.1,0c-0.3,0.1-0.6,0.2-0.9,0.3
		c0,0-0.1,0-0.1,0.1c-0.2,0.1-0.4,0.2-0.6,0.3c0,0-0.1,0.1-0.1,0.1c-0.1,0.1-0.2,0.1-0.3,0.2c-0.2,0.1-0.3,0.3-0.5,0.4
		c-0.1,0.1-0.2,0.1-0.2,0.2c-0.2,0.2-0.3,0.3-0.4,0.5c0,0.1-0.1,0.1-0.1,0.2c-0.2,0.3-0.3,0.5-0.4,0.8c0,0.1,0,0.1-0.1,0.2
		c-0.1,0.2-0.2,0.4-0.2,0.7c0,0.1,0,0.2-0.1,0.3c0,0.2-0.1,0.4-0.1,0.6c0,0.1,0,0.2,0,0.3c0,0.3,0,0.6,0.1,1l47.1,297.8
		c0.3,2.2,2,4,4.2,4.5c2.2,0.5,4.4-0.3,5.7-2.1l0.1-0.2l255.9-352.2l-30.8,302.7c0,0,0,0.1,0,0.1c0,0.3,0,0.6,0,1c0,0.1,0,0.1,0,0.2
		c0,0.2,0.1,0.4,0.1,0.6c0,0,0,0.1,0,0.1c0,0.1,0.1,0.2,0.1,0.3c0.1,0.2,0.1,0.4,0.2,0.6c0,0.1,0.1,0.2,0.1,0.3
		c0.1,0.2,0.2,0.4,0.4,0.6c0,0.1,0.1,0.1,0.1,0.2c0.2,0.2,0.4,0.5,0.6,0.7c0.1,0,0.1,0.1,0.2,0.1c0.2,0.2,0.4,0.3,0.6,0.4
		c0.1,0.1,0.2,0.1,0.3,0.2c0.2,0.1,0.4,0.2,0.6,0.3c0.1,0,0.2,0.1,0.3,0.1c0.3,0.1,0.6,0.2,0.9,0.2l297.8,47.2
		c2.2,0.3,4.4-0.7,5.6-2.6c1.2-1.9,1.1-4.3-0.2-6.1l-0.1-0.2L553.6,594.8L832,717.6c0,0,0.1,0,0.1,0c0.3,0.1,0.6,0.2,0.9,0.3
		c0.1,0,0.1,0,0.2,0c0.2,0,0.4,0.1,0.6,0.1c0,0,0.1,0,0.1,0c0.1,0,0.2,0,0.3,0c0.2,0,0.4,0,0.6,0c0.1,0,0.2,0,0.3,0
		c0.2,0,0.5-0.1,0.7-0.2c0.1,0,0.2,0,0.2-0.1c0.3-0.1,0.6-0.2,0.8-0.4c0.1,0,0.1-0.1,0.2-0.1c0.2-0.1,0.4-0.3,0.6-0.4
		c0.1-0.1,0.2-0.1,0.2-0.2c0.2-0.1,0.3-0.3,0.5-0.5c0.1-0.1,0.1-0.2,0.2-0.2c0.2-0.3,0.4-0.5,0.5-0.8L976,446.5
		C977,444.5,976.8,442.1,975.3,440.4z M617.9,485.4l-68.2-137h191.9L617.9,485.4z M735.5,332.2l5.2,5.2H546.3
		c0-27.8,0-153.1,0-194.4L735.5,332.2z M546.3,366.2l64.1,128.8l-64.1,71.7V366.2z M123.2,440.6l238.4-121.4l6.5-3.3l-60.1,184.8
		C281.7,492.1,162.6,453.4,123.2,440.6z M378.9,318.4l92.1,160l-151.4,22.5L378.9,318.4z M477.9,488.4l48.4,83.1l-190.7-62
		L477.9,488.4z M275.6,935l-41.8-264.3l-1.1-7.3l157.2,114.2C373.5,800.2,299.9,901.5,275.6,935z M238.4,654L419,615.9l-25.4,150.9
		L238.4,654z M406.8,754.3l23.9-141.9l94-20.3L406.8,754.3z M792.9,942.9L528.6,901l-7.3-1.1l157.2-114.2
		C694.9,808.1,768.5,909.4,792.9,942.9z M514.1,891.4l19.5-183.5l135.7,70.8L514.1,891.4z M534,695.6l9.7-95.7l117.9,162.2
		L534,695.6z M557.1,584.3l190.7-62L645.1,623.1L557.1,584.3z M656.6,627.2L765.9,520l59.3,182.5L656.6,627.2z M838.7,691.7
		l-3.3,6.5l-60.1-184.8c26.4-8.6,145.6-47.3,184.9-60.1L838.7,691.7z"/>
</g>
</svg>
