<?xml version="1.0" encoding="utf-8"?>
<!-- Generator: Adobe Illustrator 22.1.0, SVG Export Plug-In . SVG Version: 6.00 Build 0)  -->
<svg version="1.1" id="Layer_1" xmlns="http://www.w3.org/2000/svg" xmlns:xlink="http://www.w3.org/1999/xlink" x="0px" y="0px"
	 viewBox="0 0 1920 1080" style="enable-background:new 0 0 1920 1080;" xml:space="preserve">
<style type="text/css">
	.st0{fill:#333333;}
	.st1{fill:#666666;}
	.st2{fill:#B2B2B2;}
	.st3{fill:#898989;}
	.st4{fill:#FFFFFF;}
	.st5{fill:#D1D1D1;}
</style>
<g>
	<g>
		<path class="st0" d="M874.6,437.6V335.9c0-49.1,36.9-67.4,85.4-67.4c48,0,85.8,18.3,85.8,67.4v101.7c0,49.1-37.8,67.4-85.8,67.4
			C911.5,505,874.6,486.7,874.6,437.6z M1024.5,335.9c0-35.6-24.2-52-64.5-52c-40.3,0-64.1,16.4-64.1,52v101.7
			c0,35.6,23.8,52,64.1,52c40.3,0,64.5-16.4,64.5-52V335.9z"/>
		<path class="st0" d="M1255.9,491.2L1131,306.4V496c0,4.8-5.1,7.1-10.6,7.1c-5.1,0-10.6-2.2-10.6-7.1V275.3c0-5.1,5.1-6.7,10.6-6.7
			c7.6,0,13.6,7.7,17.4,13.2l122.7,183.2V275.3c0-4.8,5.5-6.7,10.6-6.7c5.5,0,10.6,1.9,10.6,6.7V496c0,4.8-5.1,7.1-10.6,7.1
			C1264.8,503,1259.7,496.6,1255.9,491.2z"/>
		<path class="st0" d="M1495,491.2l-124.8-184.8V496c0,4.8-5.1,7.1-10.6,7.1c-5.1,0-10.6-2.2-10.6-7.1V275.3c0-5.1,5.1-6.7,10.6-6.7
			c7.6,0,13.6,7.7,17.4,13.2l122.7,183.2V275.3c0-4.8,5.5-6.7,10.6-6.7c5.5,0,10.6,1.9,10.6,6.7V496c0,4.8-5.1,7.1-10.6,7.1
			C1503.9,503,1498.8,496.6,1495,491.2z"/>
		<path class="st0" d="M1652.9,400.7l-62.8,91.8c-3,4.5-6.4,10.9-12.7,10.9c-5.5,0-11.9-3.5-11.9-8c0-1.3,0.8-2.6,1.7-4.2l73-105.6
			L1568.4,281c-1.7-2.2-2.6-4.2-2.6-6.1c0-4.2,5.1-6.7,11.9-6.7c5.9,0,10.2,6.1,13.6,11.2l61.6,90.8l62-90.8
			c3.4-4.5,7.2-11.2,13.6-11.2c6.8,0,11.9,2.6,11.9,6.7c0,1.9-0.8,3.9-2.6,6.1l-72.2,104.6l73.5,105.6c0.8,1.6,1.7,2.9,1.7,4.2
			c0,4.5-5.9,8-11.9,8c-6.4,0-9.8-6.4-12.7-10.9L1652.9,400.7z"/>
	</g>
	<g>
		<path class="st0" d="M971.8,631.7c0-16.4-4.7-28.4-14-35.7c-9.2-7.3-21.5-11-36.4-11l-40.6,0c-3.1,0.3-4.6,1.8-4.6,4.4v169.1
			c0,3.1,1.6,4.7,4.7,4.7s4.7-1.6,4.7-4.7v-79.9h35.5l38.8,75.6l0.1,0.2h0.1c0.1,0.1,0.4,0.4,1,1.8l1,2.7c0.3,0.5,0.8,1.1,1.3,1.9
			c0.6,0.8,1.2,1.4,1.8,1.8c0.6,0.3,1.3,0.5,2,0.5c1.4,0,2.5-0.4,3.4-1.3c0.9-0.9,1.3-2,1.3-3.4c0-0.9-0.3-1.8-0.8-2.8l-39.9-77.6
			C958.2,674.7,971.8,659.1,971.8,631.7z M962.5,631.7c0,12.8-3.7,22.4-10.9,28.4c-7.3,6.1-17.4,9.2-30.1,9.2h-35.9v-75h35.9
			c12.7,0,22.8,3,30.1,9C958.8,609.4,962.5,618.9,962.5,631.7z"/>
		<path class="st0" d="M1099.6,585c-3.1,0-4.7,1.5-4.7,4.4v124.8c0,13.6-3.4,24-10,30.8c-6.6,6.8-16.2,10.2-28.6,10.2
			c-12.3,0-21.9-3.4-28.4-10.2c-6.6-6.8-9.9-17.1-9.9-30.8V589.4c0-2.9-1.6-4.4-4.7-4.4c-3.1,0-4.7,1.5-4.7,4.4v124.8
			c0,17.3,4.4,30.2,13,38.2c8.6,8,20.3,12.1,34.7,12.1c14.4,0,26.1-4.1,34.8-12.1c8.7-8,13.1-20.9,13.1-38.2V589.4
			C1104.2,586.5,1102.6,585,1099.6,585z"/>
		<path class="st0" d="M1243.6,585c-3.1,0-4.7,1.5-4.7,4.4V740l-73.8-146.1c-3.3-6-5.9-8.9-7.8-8.9c-3.1,0-4.7,1.5-4.7,4.4v169.1
			c0,3.1,1.6,4.7,4.7,4.7c3.1,0,4.7-1.6,4.7-4.7V607.9l74.3,146.3c3,6,5.4,8.9,7.3,8.9c3.1,0,4.7-1.6,4.7-4.7V589.4
			C1248.3,586.5,1246.7,585,1243.6,585z"/>
		<path class="st0" d="M1380.6,585h-95c-1.4,0-2.5,0.5-3.4,1.4c-0.9,0.9-1.3,2-1.3,3.2c0,1.2,0.4,2.3,1.3,3.2c0.9,1,2,1.4,3.4,1.4
			h42.9v164.1c0,3.1,1.6,4.7,4.7,4.7s4.7-1.6,4.7-4.7V594.3h42.7c3.1,0,4.7-1.7,4.7-4.9C1385.2,586.5,1383.7,585,1380.6,585z"/>
		<path class="st0" d="M1422.6,585c-3.1,0-4.7,1.5-4.7,4.4v169.1c0,3.1,1.6,4.7,4.7,4.7c3.1,0,4.7-1.6,4.7-4.7V589.4
			C1427.3,586.5,1425.7,585,1422.6,585z"/>
		<path class="st0" d="M1590.9,585c-1.9,0-4.5,2.9-7.8,8.9l-47.1,92.3l-46.9-92.3c-3.3-6-5.9-8.9-7.8-8.9c-3.1,0-4.7,1.5-4.7,4.4
			v169.1c0,3.1,1.6,4.7,4.7,4.7s4.7-1.6,4.7-4.7V607.9l45.1,87.3c1.5,3.2,3.1,4.8,4.9,4.8c1.6,0,3.2-1.6,4.9-4.8l45.4-87.4v150.6
			c0,3.1,1.6,4.7,4.7,4.7c3.1,0,4.7-1.6,4.7-4.7V589.4C1595.6,586.5,1594,585,1590.9,585z"/>
		<path class="st0" d="M1736.2,753.8h-81.8v-75.2h38.6c2.9,0,4.4-1.5,4.4-4.4c0-3.3-1.5-4.9-4.4-4.9h-38.6v-75h81.8
			c2.9,0,4.4-1.7,4.4-4.9c0-2.9-1.5-4.4-4.4-4.4h-86.5c-3.1,0-4.7,1.6-4.7,4.7v168.8c0,3.1,1.6,4.7,4.7,4.7h86.5
			c2.9,0,4.4-1.5,4.4-4.4C1740.6,755.5,1739.1,753.8,1736.2,753.8z"/>
	</g>
</g>
<g>
	<g>
		<polygon class="st4" points="602.9,390.9 468.1,541.6 468.1,256 		"/>
		<polyline class="st5" points="602.9,390.9 516,487.1 468.1,390.9 		"/>
		<path class="st2" d="M468.1,256l134.8,134.9H468.1C468.1,390.9,468.1,256.9,468.1,256z"/>
	</g>
	<g>
		<polygon class="st4" points="363.5,366.6 465.2,541.5 193.5,453.2 		"/>
		<polyline class="st5" points="363.5,366.6 428.2,479.1 321.8,494.9 		"/>
		<path class="st2" d="M193.5,453.2l169.9-86.6l-41.7,128.2C321.8,494.9,194.3,453.5,193.5,453.2z"/>
	</g>
	<g>
		<polygon class="st4" points="266.4,586.9 464.1,544.2 296.2,775.3 		"/>
		<polyline class="st5" points="266.4,586.9 393.3,560.1 375.5,666.2 		"/>
		<path class="st2" d="M296.2,775.3l-29.8-188.4l109.1,79.3C375.5,666.2,296.7,774.6,296.2,775.3z"/>
	</g>
	<g>
		<polygon class="st4" points="445.9,747.3 466.4,546 634.3,777.1 		"/>
		<polyline class="st5" points="445.9,747.3 459.7,618.3 555,668 		"/>
		<path class="st2" d="M634.3,777.1l-188.4-29.9L555,668C555,668,633.8,776.4,634.3,777.1z"/>
	</g>
	<g>
		<polygon class="st4" points="653.9,626.1 468.8,544.4 740.5,456.2 		"/>
		<polyline class="st5" points="653.9,626.1 535.5,573.2 612.2,497.9 		"/>
		<path class="st2" d="M740.5,456.2l-86.6,169.9l-41.7-128.2C612.2,497.9,739.7,456.4,740.5,456.2z"/>
	</g>
	<path class="st0" d="M742.1,453.4c-0.9-1.1-2.4-1.5-3.7-1.1l-0.1,0l-261.9,85.1L604.7,394c0,0,0,0,0,0c0.1-0.2,0.3-0.3,0.4-0.5
		c0,0,0-0.1,0-0.1c0.1-0.1,0.1-0.2,0.2-0.4c0,0,0-0.1,0-0.1c0-0.1,0-0.1,0.1-0.2c0-0.1,0.1-0.3,0.1-0.4c0-0.1,0-0.1,0-0.2
		c0-0.1,0-0.3,0-0.4c0,0,0-0.1,0-0.1c0-0.2,0-0.4-0.1-0.6c0,0,0-0.1,0-0.1c0-0.1-0.1-0.3-0.1-0.4c0-0.1-0.1-0.1-0.1-0.2
		c-0.1-0.1-0.1-0.2-0.2-0.4c0-0.1-0.1-0.1-0.1-0.2c-0.1-0.2-0.2-0.3-0.4-0.5L469.7,254.3c-1-1-2.5-1.3-3.8-0.8
		c-1.3,0.5-2.1,1.8-2.1,3.2v0.1v275.4L367,365.9c0,0,0,0,0,0c-0.1-0.2-0.2-0.3-0.4-0.5c0,0,0,0-0.1-0.1c-0.1-0.1-0.2-0.2-0.3-0.3
		c0,0-0.1,0-0.1-0.1c-0.1,0-0.1-0.1-0.2-0.1c-0.1-0.1-0.2-0.1-0.3-0.2c-0.1,0-0.1-0.1-0.2-0.1c-0.1-0.1-0.3-0.1-0.4-0.2
		c0,0-0.1,0-0.1,0c-0.2-0.1-0.4-0.1-0.6-0.1c0,0-0.1,0-0.1,0c-0.2,0-0.3,0-0.5,0c-0.1,0-0.1,0-0.2,0c-0.1,0-0.3,0-0.4,0.1
		c-0.1,0-0.1,0-0.2,0c-0.2,0.1-0.4,0.1-0.6,0.2l-169.9,86.6c-1.3,0.6-2,2-1.9,3.4c0.1,1.4,1.1,2.6,2.4,3l0.1,0L455,542.7
		l-188.2,40.6c0,0,0,0-0.1,0c-0.2,0-0.4,0.1-0.6,0.2c0,0-0.1,0-0.1,0c-0.1,0.1-0.2,0.1-0.4,0.2c0,0,0,0-0.1,0.1
		c-0.1,0-0.1,0.1-0.2,0.1c-0.1,0.1-0.2,0.2-0.3,0.3c0,0-0.1,0.1-0.1,0.1c-0.1,0.1-0.2,0.2-0.3,0.3c0,0-0.1,0.1-0.1,0.1
		c-0.1,0.2-0.2,0.3-0.3,0.5c0,0,0,0.1,0,0.1c-0.1,0.1-0.1,0.3-0.1,0.4c0,0.1,0,0.1,0,0.2c0,0.1,0,0.3-0.1,0.4c0,0.1,0,0.1,0,0.2
		c0,0.2,0,0.4,0,0.6l29.8,188.4c0.2,1.4,1.3,2.5,2.6,2.8c1.4,0.3,2.8-0.2,3.6-1.3l0.1-0.1l161.9-222.8l-19.5,191.5c0,0,0,0,0,0.1
		c0,0.2,0,0.4,0,0.6c0,0,0,0.1,0,0.1c0,0.1,0,0.3,0.1,0.4c0,0,0,0.1,0,0.1c0,0.1,0,0.1,0.1,0.2c0,0.1,0.1,0.3,0.1,0.4
		c0,0.1,0.1,0.1,0.1,0.2c0.1,0.1,0.1,0.3,0.2,0.4c0,0,0.1,0.1,0.1,0.1c0.1,0.2,0.3,0.3,0.4,0.4c0,0,0.1,0.1,0.1,0.1
		c0.1,0.1,0.2,0.2,0.4,0.3c0.1,0,0.1,0.1,0.2,0.1c0.1,0.1,0.2,0.1,0.4,0.2c0.1,0,0.1,0.1,0.2,0.1c0.2,0.1,0.4,0.1,0.6,0.2
		l188.4,29.9c1.4,0.2,2.8-0.4,3.5-1.6c0.7-1.2,0.7-2.7-0.2-3.9l-0.1-0.1L475.3,551.1l176.1,77.7c0,0,0,0,0.1,0
		c0.2,0.1,0.4,0.1,0.6,0.2c0,0,0.1,0,0.1,0c0.1,0,0.3,0.1,0.4,0.1c0,0,0.1,0,0.1,0c0.1,0,0.1,0,0.2,0c0.1,0,0.3,0,0.4,0
		c0.1,0,0.1,0,0.2,0c0.1,0,0.3-0.1,0.4-0.1c0,0,0.1,0,0.1,0c0.2-0.1,0.4-0.1,0.5-0.2c0,0,0.1-0.1,0.1-0.1c0.1-0.1,0.3-0.2,0.4-0.3
		c0.1,0,0.1-0.1,0.2-0.1c0.1-0.1,0.2-0.2,0.3-0.3c0,0,0.1-0.1,0.1-0.1c0.1-0.2,0.2-0.3,0.3-0.5l86.6-169.9
		C743.2,456,743,454.5,742.1,453.4z M516,481.8l-43.1-86.7h121.4L516,481.8z M590.4,384.9l3.3,3.3H470.8c0-17.6,0-96.8,0-123
		L590.4,384.9z M470.8,406.5l40.6,81.5l-40.6,45.3V406.5z M203.1,453.5l150.8-76.8l4.1-2.1l-38,116.9
		C303.4,486.1,228,461.6,203.1,453.5z M364.9,376.2l58.2,101.2l-95.8,14.2L364.9,376.2z M427.5,483.8l30.6,52.6l-120.6-39.2
		L427.5,483.8z M299.5,766.3L273,599.1l-0.7-4.6l99.5,72.3C361.4,681,314.9,745.1,299.5,766.3z M275.9,588.5l114.2-24.1l-16,95.5
		L275.9,588.5z M382.5,652l15.1-89.8l59.5-12.8L382.5,652z M626.7,771.2l-167.2-26.5l-4.6-0.7l99.5-72.3
		C564.7,686,611.3,750.1,626.7,771.2z M450.4,738.7l12.4-116.1l85.8,44.8L450.4,738.7z M463,614.9l6.2-60.5L543.7,657L463,614.9z
		 M477.6,544.4l120.6-39.2l-65,63.8L477.6,544.4z M540.5,571.6l69.1-67.8l37.5,115.4L540.5,571.6z M655.7,612.4l-2.1,4.1l-38-116.9
		c16.7-5.4,92.1-29.9,117-38L655.7,612.4z"/>
</g>
</svg>
