<svg xmlns="http://www.w3.org/2000/svg" width="2500" height="962" viewBox="0.5 0.5 249 95.771"><g fill="#f4bd27"><path d="M22.283 96.207L.5 80.937V.5l21.917 6.714v54.082L1.135 80.266l51.939-27.325-14.4-6.513-9.745-21.131 48.138 14.752v23.524L22.283 96.207zM112.433 71.135h-.159v5.904h-6.543V16.553l6.543 1.948v24.864h.16c3.219-5.426 7.926-8.139 14.124-8.139 5.24 0 9.344 1.829 12.308 5.487 2.966 3.657 4.45 8.56 4.45 14.703 0 6.835-1.664 12.308-4.988 16.418-3.325 4.11-7.873 6.163-13.646 6.163-5.399 0-9.48-2.288-12.249-6.862zm-.159-16.477v5.706c0 3.378 1.097 6.245 3.291 8.598 2.194 2.353 4.98 3.532 8.36 3.532 3.962 0 7.068-1.516 9.317-4.55 2.247-3.031 3.37-7.247 3.37-12.649 0-4.547-1.05-8.112-3.152-10.692s-4.947-3.87-8.539-3.87c-3.804 0-6.862 1.325-9.176 3.97-2.313 2.646-3.471 5.963-3.471 9.955zM155.225 26.853c-1.17 0-2.168-.399-2.993-1.197-.825-.8-1.236-1.808-1.236-3.032s.413-2.241 1.236-3.052c.823-.811 1.822-1.218 2.993-1.218 1.197 0 2.214.405 3.052 1.218.837.811 1.256 1.828 1.256 3.052 0 1.17-.419 2.167-1.256 2.993-.838.823-1.855 1.236-3.052 1.236zm3.193 50.186h-6.543V36.182h6.543V77.04zM203.207 77.04h-6.543V53.738c0-8.672-3.166-13.007-9.495-13.007-3.27 0-5.98 1.23-8.118 3.691-2.141 2.46-3.214 5.565-3.214 9.316v23.3h-6.543V36.182h6.543v6.783h.16c3.086-5.16 7.554-7.74 13.407-7.74 4.47 0 7.887 1.444 10.253 4.328 2.367 2.887 3.55 7.056 3.55 12.508V77.04zM249.5 73.769c0 15.002-7.182 22.504-21.546 22.504-5.054 0-9.47-.958-13.248-2.873l1.79-5.86c4.002 1.975 7.69 3.08 11.36 3.08 9.722 0 15.099-5.279 15.099-15.973v-4.47h-.16c-3.11 5.214-7.793 7.82-14.044 7.82-5.08 0-9.17-1.816-12.27-5.446-3.098-3.63-4.782-8.572-4.782-14.69 0-6.942 1.804-12.394 5.14-16.492 3.338-4.096 8.002-6.263 13.802-6.263 5.505 0 9.495 1.994 12.155 6.41h.159v-5.334h6.543V73.77zm-6.543-15.201v-6.024c0-6.435-5.254-11.81-11.493-11.81-9.47 0-12.86 8.619-12.927 16.757 0 7.773 3.95 14.7 12.01 14.7 8.073-.001 12.33-6.375 12.41-13.623z"/></g></svg>
