<?xml version="1.0" encoding="utf-8"?>
<!-- Generator: Adobe Illustrator 23.0.3, SVG Export Plug-In . SVG Version: 6.00 Build 0)  -->
<svg version="1.1" id="Layer_1" xmlns="http://www.w3.org/2000/svg" xmlns:xlink="http://www.w3.org/1999/xlink" x="0px" y="0px"
	 viewBox="0 0 41 41" style="enable-background:new 0 0 41 41;" xml:space="preserve">
<style type="text/css">
	.st0{fill:none;stroke:#1A1A1A;stroke-width:1.5;stroke-miterlimit:10;}
	.st1{fill:#FFFFFF;stroke:#1A1A1A;stroke-width:1.5;stroke-miterlimit:10;}
</style>
<g>
	<polygon class="st0" points="2.82,30.88 33.79,30.88 39.41,34.46 34.7,38.32 2.61,38.32 7.87,34.74 	"/>
	<path class="st0" d="M24.73,25.19h8.43H34c3.26,0,5.9-2.64,5.9-5.9c0-3.26-2.64-5.9-5.9-5.9c-0.63,0-1.23,0.1-1.8,0.28
		c0.07-0.36,0.11-0.74,0.11-1.12c0-3.26-2.64-5.9-5.9-5.9c-1.47,0-2.82,0.54-3.85,1.44c-1.15-3.29-4.27-5.65-7.95-5.65
		c-4.66,0-8.43,3.77-8.43,8.43c0,0.89,0.14,1.74,0.39,2.55c-3.05,0.23-5.45,2.77-5.45,5.88c0,3.26,2.64,5.9,5.9,5.9h7.59"/>
	<polyline class="st0" points="17.14,24.5 17.14,17.89 13.77,17.89 19.67,10.3 25.57,17.89 22.2,17.89 22.2,24.5 	"/>
	<path class="st0" d="M22.58,8.08c0.22,0.62,0.36,1.26,0.43,1.94"/>
	<path class="st0" d="M32.21,13.67c-0.13,0.69-0.39,1.34-0.74,1.92"/>
	<polygon class="st1" points="19.88,21.75 13.91,25.33 13.91,32.28 19.81,36.15 26.13,32.5 26.13,25.47 	"/>
	<polyline class="st0" points="13.91,25.33 20.09,29.33 26.13,25.47 	"/>
	<line class="st0" x1="19.81" y1="36.15" x2="19.81" y2="29.33"/>
</g>
<g>
</g>
<g>
</g>
<g>
</g>
<g>
</g>
<g>
</g>
<g>
</g>
<g>
</g>
<g>
</g>
<g>
</g>
<g>
</g>
<g>
</g>
<g>
</g>
<g>
</g>
<g>
</g>
<g>
</g>
</svg>
