<?xml version="1.0" encoding="utf-8"?>
<!-- Generator: Adobe Illustrator 23.0.3, SVG Export Plug-In . SVG Version: 6.00 Build 0)  -->
<svg version="1.1" id="Layer_1" xmlns="http://www.w3.org/2000/svg" xmlns:xlink="http://www.w3.org/1999/xlink" x="0px" y="0px"
	 viewBox="0 0 41 41" style="enable-background:new 0 0 41 41;" xml:space="preserve">
<style type="text/css">
	.st0{fill:#FFFFFF;stroke:#1A1A1A;stroke-width:1.5;stroke-miterlimit:10;}
	.st1{fill:none;stroke:#1A1A1A;stroke-width:1.5;stroke-miterlimit:10;}
</style>
<g>
	<path class="st0" d="M33.72,35.89H7.49c-1.21,0-2.19-0.98-2.19-2.19V7.48c0-1.21,0.98-2.19,2.19-2.19h26.22
		c1.21,0,2.19,0.98,2.19,2.19V33.7C35.9,34.92,34.92,35.89,33.72,35.89z"/>
	<path class="st0" d="M30.07,31.52H11.13c-0.8,0-1.46-0.65-1.46-1.46v-15.3c1.99-1.99,3.11-3.11,5.1-5.1h15.3
		c0.8,0,1.46,0.65,1.46,1.46v18.94C31.53,30.87,30.88,31.52,30.07,31.52z"/>
	<line class="st1" x1="3.12" y1="7.48" x2="0.21" y2="7.48"/>
	<line class="st1" x1="3.12" y1="11.86" x2="0.21" y2="11.86"/>
	<line class="st1" x1="3.12" y1="16.23" x2="0.21" y2="16.23"/>
	<line class="st1" x1="3.12" y1="20.6" x2="0.21" y2="20.6"/>
	<line class="st1" x1="3.12" y1="24.97" x2="0.21" y2="24.97"/>
	<line class="st1" x1="3.12" y1="29.34" x2="0.21" y2="29.34"/>
	<line class="st1" x1="3.12" y1="33.71" x2="0.21" y2="33.71"/>
	<line class="st1" x1="41" y1="7.48" x2="38.09" y2="7.48"/>
	<line class="st1" x1="41" y1="11.86" x2="38.09" y2="11.86"/>
	<line class="st1" x1="41" y1="16.23" x2="38.09" y2="16.23"/>
	<line class="st1" x1="41" y1="20.6" x2="38.09" y2="20.6"/>
	<line class="st1" x1="41" y1="24.97" x2="38.09" y2="24.97"/>
	<line class="st1" x1="41" y1="29.34" x2="38.09" y2="29.34"/>
	<line class="st1" x1="41" y1="33.71" x2="38.09" y2="33.71"/>
	<line class="st1" x1="33.72" y1="40.99" x2="33.72" y2="38.08"/>
	<line class="st1" x1="29.35" y1="40.99" x2="29.35" y2="38.08"/>
	<line class="st1" x1="24.97" y1="40.99" x2="24.97" y2="38.08"/>
	<line class="st1" x1="20.6" y1="40.99" x2="20.6" y2="38.08"/>
	<line class="st1" x1="16.23" y1="40.99" x2="16.23" y2="38.08"/>
	<line class="st1" x1="11.86" y1="40.99" x2="11.86" y2="38.08"/>
	<line class="st1" x1="7.49" y1="40.99" x2="7.49" y2="38.08"/>
	<line class="st1" x1="33.72" y1="3.11" x2="33.72" y2="0.2"/>
	<line class="st1" x1="29.35" y1="3.11" x2="29.35" y2="0.2"/>
	<line class="st1" x1="24.97" y1="3.11" x2="24.97" y2="0.2"/>
	<line class="st1" x1="20.6" y1="3.11" x2="20.6" y2="0.2"/>
	<line class="st1" x1="16.23" y1="3.11" x2="16.23" y2="0.2"/>
	<line class="st1" x1="11.86" y1="3.11" x2="11.86" y2="0.2"/>
	<line class="st1" x1="7.49" y1="3.11" x2="7.49" y2="0.2"/>
	<line class="st1" x1="16.96" y1="20.6" x2="18.42" y2="20.6"/>
	<line class="st1" x1="19.88" y1="20.6" x2="21.33" y2="20.6"/>
	<line class="st1" x1="22.79" y1="20.6" x2="24.25" y2="20.6"/>
</g>
</svg>
