<?xml version="1.0" encoding="utf-8"?>
<!-- Generator: Adobe Illustrator 23.0.3, SVG Export Plug-In . SVG Version: 6.00 Build 0)  -->
<svg version="1.1" id="Layer_1" xmlns="http://www.w3.org/2000/svg" xmlns:xlink="http://www.w3.org/1999/xlink" x="0px" y="0px"
	 viewBox="0 0 41 41" style="enable-background:new 0 0 41 41;" xml:space="preserve">
<style type="text/css">
	.st0{fill:none;stroke:#1A1A1A;stroke-width:1.5;stroke-linejoin:round;stroke-miterlimit:10;}
</style>
<g>
	<path class="st0" d="M24.79,20.36c0,2.35-1.9,4.25-4.25,4.25c-2.35,0-4.25-1.9-4.25-4.25s1.9-4.25,4.25-4.25
		C22.89,16.11,24.79,18.01,24.79,20.36z"/>
	<path class="st0" d="M13.68,11.85c-0.77,0.62-1.44,1.33-2,2.12l-2.51-0.84l-1.71,4.12l2.37,1.18c-0.19,1.15-0.2,2.33,0,3.51
		l-2.36,1.18l1.71,4.12l2.51-0.83c0.69,0.97,1.54,1.8,2.48,2.48l-0.84,2.51l4.12,1.71l1.18-2.36c1.57,0.56,5.45,0.66,7.02,0.66h8.5
		v-1.7l5.95,4.26l-5.95,5.1v-1.7H19.69c-8.92,0-16.15-7.23-16.15-16.15c0-0.87,0.07-1.72,0.2-2.56"/>
	<path class="st0" d="M27.41,28.86c0.77-0.62,1.44-1.33,2-2.12l2.51,0.84l1.71-4.12l-2.37-1.18c0.19-1.15,0.2-2.33,0-3.51l2.36-1.18
		l-1.71-4.12l-2.51,0.83c-0.69-0.97-1.54-1.8-2.48-2.48l0.84-2.51L23.65,7.6l-1.18,2.37c-1.57-0.56-5.45-0.66-7.02-0.66h-8.5V11
		L0.99,6.75l5.95-5.1v1.7h14.45c8.92,0,16.15,7.23,16.15,16.15c0,1.17-0.12,2.3-0.36,3.4"/>
</g>
<g>
</g>
<g>
</g>
<g>
</g>
<g>
</g>
<g>
</g>
<g>
</g>
<g>
</g>
<g>
</g>
<g>
</g>
<g>
</g>
<g>
</g>
<g>
</g>
<g>
</g>
<g>
</g>
<g>
</g>
</svg>
