<?xml version="1.0" encoding="utf-8"?>
<!-- Generator: Adobe Illustrator 23.0.3, SVG Export Plug-In . SVG Version: 6.00 Build 0)  -->
<svg version="1.1" id="Layer_1" xmlns="http://www.w3.org/2000/svg" xmlns:xlink="http://www.w3.org/1999/xlink" x="0px" y="0px"
	 viewBox="0 0 41 41" style="enable-background:new 0 0 41 41;" xml:space="preserve">
<style type="text/css">
	.st0{fill:none;stroke:#1A1A1A;stroke-width:1.5;stroke-linejoin:round;stroke-miterlimit:10;}
</style>
<g>
	<line class="st0" x1="20.29" y1="0.21" x2="20.29" y2="7.32"/>
	<line class="st0" x1="6.47" y1="5.94" x2="11.49" y2="10.97"/>
	<line class="st0" x1="0.74" y1="19.76" x2="7.85" y2="19.76"/>
	<line class="st0" x1="6.47" y1="33.59" x2="11.49" y2="28.56"/>
	<line class="st0" x1="34.12" y1="33.59" x2="29.09" y2="28.56"/>
	<line class="st0" x1="39.84" y1="19.76" x2="32.73" y2="19.76"/>
	<line class="st0" x1="34.12" y1="5.94" x2="29.09" y2="10.97"/>
	<polyline class="st0" points="23.85,39.31 22.96,39.31 22.07,40.2 20.29,40.2 18.51,40.2 17.63,39.31 16.74,39.31 	"/>
	<line class="st0" x1="14.96" y1="33.98" x2="25.62" y2="33.98"/>
	<line class="st0" x1="15.85" y1="36.65" x2="24.73" y2="36.65"/>
	<path class="st0" d="M24.73,32.2v-1.78c0-1.61,0.56-3.08,1.67-4.22c1.68-1.71,2.77-3.83,2.77-6.44c0-4.91-3.98-8.89-8.89-8.89
		s-8.89,3.98-8.89,8.89c0,2.61,1.09,4.73,2.77,6.44c1.11,1.14,1.67,2.62,1.67,4.22v1.78"/>
	<line class="st0" x1="20.29" y1="32.2" x2="20.29" y2="25.09"/>
	<polyline class="st0" points="18.51,23.32 20.29,25.09 22.07,23.32 	"/>
	<line class="st0" x1="14.17" y1="4.98" x2="15.53" y2="8.27"/>
	<line class="st0" x1="5.51" y1="13.64" x2="8.8" y2="15"/>
	<line class="st0" x1="5.51" y1="25.88" x2="8.8" y2="24.52"/>
	<line class="st0" x1="35.07" y1="25.88" x2="31.79" y2="24.52"/>
	<line class="st0" x1="35.07" y1="13.64" x2="31.79" y2="15"/>
	<line class="st0" x1="26.41" y1="4.98" x2="25.05" y2="8.27"/>
</g>
</svg>
