<svg width="1052" height="367" xmlns="http://www.w3.org/2000/svg" xmlns:xlink="http://www.w3.org/1999/xlink" overflow="hidden"><defs><clipPath id="clip0"><rect x="120" y="161" width="1052" height="367"/></clipPath><clipPath id="clip1"><rect x="121" y="162" width="1050" height="365"/></clipPath><clipPath id="clip2"><rect x="121" y="162" width="1050" height="365"/></clipPath></defs><g clip-path="url(#clip0)" transform="translate(-120 -161)"><g clip-path="url(#clip1)"><g clip-path="url(#clip2)"><path d="M583.054 291.727 583.054 223.929C583.054 191.196 607.654 178.996 639.986 178.996 671.986 178.996 697.185 191.196 697.185 223.929L697.185 291.727C697.185 324.46 671.986 336.659 639.986 336.659 607.654 336.659 583.054 324.46 583.054 291.727ZM682.985 223.929C682.985 200.196 666.852 189.263 639.986 189.263 613.12 189.263 597.254 200.196 597.254 223.929L597.254 291.727C597.254 315.46 613.12 326.393 639.986 326.393 666.852 326.393 682.985 315.46 682.985 291.727L682.985 223.929Z" fill="#FFFFFF" transform="matrix(1 0 -0 1.00001 0.016981 0.00177532)"/><path d="M837.249 327.46 753.984 204.262 753.984 330.66C753.984 333.86 750.584 335.393 746.917 335.393 743.518 335.393 739.851 333.926 739.851 330.66L739.851 183.529C739.851 180.13 743.251 179.063 746.917 179.063 751.984 179.063 755.984 184.196 758.517 187.863L840.315 309.993 840.315 183.529C840.315 180.329 843.982 179.063 847.382 179.063 851.048 179.063 854.448 180.329 854.448 183.529L854.448 330.66C854.448 333.86 851.048 335.393 847.382 335.393 843.182 335.326 839.782 331.06 837.249 327.46Z" fill="#FFFFFF" transform="matrix(1 0 -0 1.00001 0.016981 0.00177532)"/><path d="M996.645 327.46 913.447 204.262 913.447 330.66C913.447 333.86 910.047 335.393 906.381 335.393 902.981 335.393 899.314 333.926 899.314 330.66L899.314 183.529C899.314 180.13 902.714 179.063 906.381 179.063 911.447 179.063 915.447 184.196 917.98 187.863L999.779 309.993 999.779 183.529C999.779 180.329 1003.45 179.063 1006.85 179.063 1010.51 179.063 1013.91 180.329 1013.91 183.529L1013.91 330.66C1013.91 333.86 1010.51 335.393 1006.85 335.393 1002.58 335.326 999.179 331.06 996.645 327.46Z" fill="#FFFFFF" transform="matrix(1 0 -0 1.00001 0.016981 0.00177532)"/><path d="M1101.91 267.128 1060.04 328.326C1058.04 331.326 1055.78 335.593 1051.58 335.593 1047.91 335.593 1043.64 333.26 1043.64 330.26 1043.64 329.393 1044.18 328.526 1044.78 327.46L1093.44 257.061 1045.58 187.329C1044.44 185.863 1043.84 184.529 1043.84 183.263 1043.84 180.463 1047.24 178.796 1051.78 178.796 1055.71 178.796 1058.58 182.863 1060.84 186.263L1101.91 246.795 1143.24 186.263C1145.51 183.263 1148.04 178.796 1152.31 178.796 1156.84 178.796 1160.24 180.529 1160.24 183.263 1160.24 184.529 1159.71 185.863 1158.51 187.329L1110.38 257.061 1159.38 327.46C1159.91 328.526 1160.51 329.393 1160.51 330.26 1160.51 333.26 1156.58 335.593 1152.58 335.593 1148.31 335.593 1146.04 331.326 1144.11 328.326L1101.91 267.128Z" fill="#FFFFFF" transform="matrix(1 0 -0 1.00001 0.016981 0.00177532)"/><path d="M647.853 421.124C647.853 410.191 644.72 402.191 638.52 397.325 632.386 392.458 624.187 389.992 614.254 389.992L587.187 389.992C585.121 390.192 584.121 391.192 584.121 392.925L584.121 505.656C584.121 507.722 585.188 508.789 587.254 508.789 589.321 508.789 590.387 507.722 590.387 505.656L590.387 452.39 614.054 452.39 639.92 502.789 639.986 502.923 640.053 502.923C640.12 502.989 640.32 503.189 640.72 504.123L641.386 505.923C641.586 506.256 641.92 506.656 642.253 507.189 642.653 507.722 643.053 508.122 643.453 508.389 643.853 508.589 644.32 508.722 644.786 508.722 645.72 508.722 646.453 508.456 647.053 507.856 647.653 507.256 647.919 506.523 647.919 505.589 647.919 504.989 647.719 504.389 647.386 503.723L620.787 451.99C638.786 449.79 647.853 439.391 647.853 421.124ZM641.653 421.124C641.653 429.658 639.186 436.057 634.386 440.057 629.52 444.124 622.787 446.19 614.32 446.19L590.387 446.19 590.387 396.192 614.32 396.192C622.787 396.192 629.52 398.191 634.386 402.191 639.186 406.258 641.653 412.591 641.653 421.124Z" fill="#FFFFFF" transform="matrix(1 0 -0 1.00001 0.016981 0.00177532)"/><path d="M733.051 389.992C730.984 389.992 729.918 390.992 729.918 392.925L729.918 476.123C729.918 485.19 727.651 492.123 723.251 496.656 718.851 501.189 712.451 503.456 704.185 503.456 695.985 503.456 689.585 501.189 685.252 496.656 680.852 492.123 678.652 485.256 678.652 476.123L678.652 392.925C678.652 390.992 677.586 389.992 675.519 389.992 673.452 389.992 672.386 390.992 672.386 392.925L672.386 476.123C672.386 487.656 675.319 496.256 681.052 501.589 686.785 506.923 694.585 509.656 704.185 509.656 713.785 509.656 721.585 506.923 727.384 501.589 733.184 496.256 736.118 487.656 736.118 476.123L736.118 392.925C736.118 390.992 735.051 389.992 733.051 389.992Z" fill="#FFFFFF" transform="matrix(1 0 -0 1.00001 0.016981 0.00177532)"/><path d="M829.049 389.992C826.982 389.992 825.916 390.992 825.916 392.925L825.916 493.323 776.717 395.925C774.517 391.925 772.783 389.992 771.517 389.992 769.45 389.992 768.384 390.992 768.384 392.925L768.384 505.656C768.384 507.722 769.45 508.789 771.517 508.789 773.583 508.789 774.65 507.722 774.65 505.656L774.65 405.258 824.182 502.789C826.182 506.789 827.782 508.722 829.049 508.722 831.116 508.722 832.182 507.656 832.182 505.589L832.182 392.925C832.182 390.992 831.116 389.992 829.049 389.992Z" fill="#FFFFFF" transform="matrix(1 0 -0 1.00001 0.016981 0.00177532)"/><path d="M920.38 389.992 857.048 389.992C856.115 389.992 855.382 390.325 854.782 390.925 854.182 391.525 853.915 392.258 853.915 393.058 853.915 393.858 854.182 394.592 854.782 395.192 855.382 395.858 856.115 396.125 857.048 396.125L885.648 396.125 885.648 505.523C885.648 507.589 886.714 508.656 888.781 508.656 890.848 508.656 891.914 507.589 891.914 505.523L891.914 396.192 920.38 396.192C922.447 396.192 923.514 395.058 923.514 392.925 923.447 390.992 922.447 389.992 920.38 389.992Z" fill="#FFFFFF" transform="matrix(1 0 -0 1.00001 0.016981 0.00177532)"/><path d="M948.38 389.992C946.313 389.992 945.247 390.992 945.247 392.925L945.247 505.656C945.247 507.722 946.313 508.789 948.38 508.789 950.446 508.789 951.513 507.722 951.513 505.656L951.513 392.925C951.513 390.992 950.446 389.992 948.38 389.992Z" fill="#FFFFFF" transform="matrix(1 0 -0 1.00001 0.016981 0.00177532)"/><path d="M1060.58 389.992C1059.31 389.992 1057.58 391.925 1055.38 395.925L1023.98 457.457 992.712 395.925C990.512 391.925 988.779 389.992 987.512 389.992 985.446 389.992 984.379 390.992 984.379 392.925L984.379 505.656C984.379 507.722 985.446 508.789 987.512 508.789 989.579 508.789 990.646 507.722 990.646 505.656L990.646 405.258 1020.71 463.457C1021.71 465.59 1022.78 466.657 1023.98 466.657 1025.04 466.657 1026.11 465.59 1027.24 463.457L1057.51 405.191 1057.51 505.589C1057.51 507.656 1058.58 508.722 1060.64 508.722 1062.71 508.722 1063.78 507.656 1063.78 505.589L1063.78 392.925C1063.71 390.992 1062.64 389.992 1060.58 389.992Z" fill="#FFFFFF" transform="matrix(1 0 -0 1.00001 0.016981 0.00177532)"/><path d="M1157.44 502.523 1102.91 502.523 1102.91 452.39 1128.64 452.39C1130.58 452.39 1131.58 451.39 1131.58 449.457 1131.58 447.257 1130.58 446.19 1128.64 446.19L1102.91 446.19 1102.91 396.192 1157.44 396.192C1159.38 396.192 1160.38 395.058 1160.38 392.925 1160.38 390.992 1159.38 389.992 1157.44 389.992L1099.78 389.992C1097.71 389.992 1096.64 391.058 1096.64 393.125L1096.64 505.656C1096.64 507.722 1097.71 508.789 1099.78 508.789L1157.44 508.789C1159.38 508.789 1160.38 507.789 1160.38 505.856 1160.38 503.656 1159.38 502.523 1157.44 502.523Z" fill="#FFFFFF" transform="matrix(1 0 -0 1.00001 0.016981 0.00177532)"/><path d="M408.125 331.926 312.527 362.926 356.992 382.125Z" fill="#333333" transform="matrix(1 0 -0 1.00001 0.016981 0.00177532)"/><path d="M356.992 382.125 435.924 417.391 408.125 331.926Z" fill="#666666" transform="matrix(1 0 -0 1.00001 0.016981 0.00177532)"/><path d="M493.523 304.127 493.656 304.06C493.656 304.127 493.589 304.127 493.523 304.127Z" fill="#B2B2B2" transform="matrix(1 0 -0 1.00001 0.016981 0.00177532)"/><path d="M493.523 304.127C490.19 305.193 408.125 331.86 408.125 331.86L435.924 417.324 493.656 304.06 493.523 304.127Z" fill="#898989" transform="matrix(1 0 -0 1.00001 0.016981 0.00177532)"/><path d="M343.993 324.726 312.06 260.594 312.06 361.059Z" fill="#333333" transform="matrix(1 0 -0 1.00001 0.016981 0.00177532)"/><path d="M343.993 324.726 401.925 260.594 312.06 260.594Z" fill="#666666" transform="matrix(1 0 -0 1.00001 0.016981 0.00177532)"/><path d="M401.925 260.594 312.06 170.663C312.06 171.263 312.06 260.594 312.06 260.594L401.925 260.594Z" fill="#898989" transform="matrix(1 0 -0 1.00001 0.016981 0.00177532)"/><path d="M285.461 319.393 214.529 329.926 310.127 360.992Z" fill="#333333" transform="matrix(1 0 -0 1.00001 0.016981 0.00177532)"/><path d="M285.461 319.393 242.328 244.395 214.529 329.926Z" fill="#666666" transform="matrix(1 0 -0 1.00001 0.016981 0.00177532)"/><path d="M242.328 244.395 129.064 302.127C129.597 302.327 214.595 329.926 214.595 329.926L242.328 244.395Z" fill="#898989" transform="matrix(1 0 -0 1.00001 0.016981 0.00177532)"/><path d="M250.328 444.124 309.393 362.792 262.194 373.392Z" fill="#333333" transform="matrix(1 0 -0 1.00001 0.016981 0.00177532)"/><path d="M262.194 373.392 177.596 391.258 250.328 444.124Z" fill="#666666" transform="matrix(1 0 -0 1.00001 0.016981 0.00177532)"/><path d="M250.328 444.124 177.596 391.258 197.462 516.856 197.462 516.789C198.929 514.856 250.328 444.124 250.328 444.124Z" fill="#898989" transform="matrix(1 0 -0 1.00001 0.016981 0.00177532)"/><path d="M369.992 445.324 310.927 363.992 306.46 412.191Z" fill="#333333" transform="matrix(1 0 -0 1.00001 0.016981 0.00177532)"/><path d="M306.46 412.191 297.26 498.189 369.992 445.324Z" fill="#666666" transform="matrix(1 0 -0 1.00001 0.016981 0.00177532)"/><path d="M369.992 445.324 297.26 498.189 422.858 518.122C422.524 517.589 369.992 445.324 369.992 445.324Z" fill="#898989" transform="matrix(1 0 -0 1.00001 0.016981 0.00177532)"/><path d="M494.723 302.26C494.123 301.527 493.123 301.26 492.256 301.527L492.189 301.527 317.593 358.259 403.125 262.661C403.125 262.661 403.125 262.661 403.125 262.661 403.191 262.528 403.325 262.461 403.391 262.328 403.391 262.328 403.391 262.261 403.391 262.261 403.458 262.194 403.458 262.128 403.525 261.994 403.525 261.994 403.525 261.928 403.525 261.928 403.525 261.861 403.525 261.861 403.591 261.794 403.591 261.728 403.658 261.594 403.658 261.528 403.658 261.461 403.658 261.461 403.658 261.394 403.658 261.328 403.658 261.194 403.658 261.128 403.658 261.128 403.658 261.061 403.658 261.061 403.658 260.928 403.658 260.794 403.591 260.661 403.591 260.661 403.591 260.594 403.591 260.594 403.591 260.528 403.525 260.394 403.525 260.328 403.525 260.261 403.458 260.261 403.458 260.194 403.391 260.128 403.391 260.061 403.325 259.928 403.325 259.861 403.258 259.861 403.258 259.794 403.191 259.661 403.125 259.594 402.991 259.461L313.127 169.53C312.46 168.863 311.46 168.663 310.593 168.996 309.727 169.33 309.193 170.196 309.193 171.13L309.193 171.196 309.193 354.792 244.661 243.928C244.661 243.928 244.661 243.928 244.661 243.928 244.595 243.795 244.528 243.728 244.395 243.595 244.395 243.595 244.395 243.595 244.328 243.528 244.261 243.461 244.195 243.395 244.128 243.328 244.128 243.328 244.061 243.328 244.061 243.261 243.995 243.261 243.995 243.195 243.928 243.195 243.861 243.128 243.795 243.128 243.728 243.061 243.661 243.061 243.661 242.995 243.595 242.995 243.528 242.928 243.395 242.928 243.328 242.861 243.328 242.861 243.261 242.861 243.261 242.861 243.128 242.795 242.995 242.795 242.861 242.795 242.861 242.795 242.795 242.795 242.795 242.795 242.661 242.795 242.595 242.795 242.462 242.795 242.395 242.795 242.395 242.795 242.328 242.795 242.261 242.795 242.128 242.795 242.062 242.861 241.995 242.861 241.995 242.861 241.928 242.861 241.795 242.928 241.662 242.928 241.528 242.995L128.264 300.727C127.397 301.127 126.931 302.06 126.997 302.994 127.064 303.927 127.731 304.727 128.597 304.993L128.664 304.993 303.327 361.792 177.863 388.858C177.863 388.858 177.863 388.858 177.796 388.858 177.663 388.858 177.53 388.925 177.396 388.992 177.396 388.992 177.33 388.992 177.33 388.992 177.263 389.058 177.196 389.058 177.063 389.125 177.063 389.125 177.063 389.125 176.996 389.192 176.93 389.192 176.93 389.258 176.863 389.258 176.796 389.325 176.73 389.392 176.663 389.458 176.663 389.458 176.596 389.525 176.596 389.525 176.53 389.592 176.463 389.658 176.396 389.725 176.396 389.725 176.33 389.792 176.33 389.792 176.263 389.925 176.196 389.992 176.13 390.125 176.13 390.125 176.13 390.192 176.13 390.192 176.063 390.258 176.063 390.392 176.063 390.458 176.063 390.525 176.063 390.525 176.063 390.592 176.063 390.658 176.063 390.792 175.996 390.858 175.996 390.925 175.996 390.925 175.996 390.992 175.996 391.125 175.996 391.258 175.996 391.392L195.862 516.989C195.996 517.922 196.729 518.656 197.596 518.856 198.529 519.056 199.462 518.722 199.996 517.989L200.062 517.922 307.993 369.392 294.994 497.056C294.994 497.056 294.994 497.056 294.994 497.123 294.994 497.256 294.994 497.389 294.994 497.523 294.994 497.523 294.994 497.589 294.994 497.589 294.994 497.656 294.994 497.789 295.06 497.856 295.06 497.856 295.06 497.923 295.06 497.923 295.06 497.989 295.06 497.989 295.127 498.056 295.127 498.123 295.194 498.256 295.194 498.323 295.194 498.389 295.26 498.389 295.26 498.456 295.327 498.523 295.327 498.656 295.394 498.723 295.394 498.723 295.46 498.789 295.46 498.789 295.527 498.923 295.66 498.989 295.727 499.056 295.727 499.056 295.794 499.123 295.794 499.123 295.86 499.189 295.927 499.256 296.06 499.323 296.127 499.323 296.127 499.389 296.194 499.389 296.26 499.456 296.327 499.456 296.46 499.523 296.527 499.523 296.527 499.589 296.594 499.589 296.727 499.656 296.86 499.656 296.994 499.723L422.591 519.656C423.524 519.789 424.458 519.389 424.924 518.589 425.391 517.789 425.391 516.789 424.791 515.989L424.724 515.922 316.86 367.392 434.257 419.191C434.257 419.191 434.257 419.191 434.324 419.191 434.457 419.258 434.591 419.258 434.724 419.324 434.724 419.324 434.791 419.324 434.791 419.324 434.857 419.324 434.991 419.391 435.057 419.391 435.057 419.391 435.124 419.391 435.124 419.391 435.191 419.391 435.191 419.391 435.257 419.391 435.324 419.391 435.457 419.391 435.524 419.391 435.591 419.391 435.591 419.391 435.657 419.391 435.724 419.391 435.857 419.324 435.924 419.324 435.924 419.324 435.991 419.324 435.991 419.324 436.124 419.258 436.257 419.258 436.324 419.191 436.324 419.191 436.391 419.124 436.391 419.124 436.457 419.058 436.591 418.991 436.657 418.924 436.724 418.924 436.724 418.858 436.791 418.858 436.857 418.791 436.924 418.724 436.991 418.658 436.991 418.658 437.057 418.591 437.057 418.591 437.124 418.458 437.191 418.391 437.257 418.258L494.989 304.993C495.456 303.993 495.323 302.994 494.723 302.26ZM343.993 321.193 315.26 263.394 396.192 263.394 343.993 321.193ZM393.592 256.595 395.792 258.794 313.86 258.794C313.86 247.061 313.86 194.263 313.86 176.796L393.592 256.595ZM313.86 270.994 340.926 325.326 313.86 355.526 313.86 270.994ZM135.397 302.327 235.928 251.128 238.662 249.728 213.329 327.66C202.262 324.06 151.997 307.727 135.397 302.327ZM243.261 250.795 282.061 318.26 218.195 327.726 243.261 250.795ZM284.994 322.526 305.393 357.592 224.995 331.46 284.994 322.526ZM199.662 510.856 181.996 399.391 181.529 396.325 247.861 444.524C240.928 453.99 209.929 496.723 199.662 510.856ZM183.929 392.325 260.061 376.259 249.395 439.924 183.929 392.325ZM254.995 434.657 265.061 374.792 304.727 366.259 254.995 434.657ZM417.791 514.122 306.327 496.456 303.26 495.989 369.592 447.79C376.459 457.324 407.525 500.056 417.791 514.122ZM300.26 492.456 308.527 415.058 365.726 444.924 300.26 492.456ZM308.66 409.925 312.793 369.592 362.459 437.991 308.66 409.925ZM318.393 362.926 398.792 336.793 355.459 379.325 318.393 362.926ZM360.326 381.059 406.391 335.859 431.391 412.791 360.326 381.059ZM437.124 408.258 435.724 410.991 410.391 333.06C421.524 329.46 471.79 313.127 488.39 307.727L437.124 408.258Z" fill="#FFFFFF" transform="matrix(1 0 -0 1.00001 0.016981 0.00177532)"/></g></g></g></svg>